<?xml version="1.0" encoding="utf-8"?>
<!-- Generator: Adobe Illustrator 19.0.0, SVG Export Plug-In . SVG Version: 6.00 Build 0)  -->
<svg version="1.1" id="Layer_1" xmlns="http://www.w3.org/2000/svg" xmlns:xlink="http://www.w3.org/1999/xlink" x="0px" y="0px"
	 viewBox="0 0 1280 2216.5" style="enable-background:new 0 0 1280 2216.5;" xml:space="preserve">
<style type="text/css">
	.st0{fill:#F26957;}
	.st1{clip-path:url(#XMLID_55_);fill:#85D4C3;}
	.st2{fill:#85D4C3;}
	.st3{fill:#FFFFFF;}
</style>
<g id="background">
	<rect id="XMLID_361_" x="0" y="-0.1" class="st0" width="1279.8" height="1735.5"/>
	<g id="XMLID_358_">
		<defs>
			<rect id="XMLID_359_" x="0" y="-0.1" width="1279.8" height="2217"/>
		</defs>
		<clipPath id="XMLID_55_">
			<use xlink:href="#XMLID_359_"  style="overflow:visible;"/>
		</clipPath>
		<path id="XMLID_360_" class="st1" d="M1139.1,590.9c-33.6,81.7-80.9,158.2-138.2,172.9c-97.3,24.9-168-168-264.2-203.4
			c-78.2-28.7-160,59.7-196.4,182.8c-33.1,112.1-36,249.9-81.4,348.5c-47.7,103.5-130.4,136.8-206.9,140.5
			c-76.5,3.7-154.2-15.1-229,12.7c-119.3,44.3-218.7,216.4-246.9,420.9l-1,0.7v6.8c-1.6,12.5-3,25.1-4.1,37.9l-1.5,18.4
			c1.9,0.8,3.7,1.5,5.6,2.2v528.5h1524.7V652.5C1283.3,468.3,1198.2,447.3,1139.1,590.9z"/>
	</g>
</g>
<g id="points">
	<g id="XMLID_287_">
		<g id="XMLID_344_">
			<circle id="XMLID_357_" class="st2" cx="114.1" cy="17.3" r="4.4"/>
			<circle id="XMLID_356_" class="st2" cx="114.1" cy="37.5" r="4.4"/>
			<circle id="XMLID_355_" class="st2" cx="114.1" cy="57.7" r="4.4"/>
			<circle id="XMLID_354_" class="st2" cx="114.1" cy="77.9" r="4.4"/>
			<circle id="XMLID_353_" class="st2" cx="114.1" cy="98.1" r="4.4"/>
			<circle id="XMLID_352_" class="st2" cx="114.1" cy="118.2" r="4.4"/>
			<circle id="XMLID_351_" class="st2" cx="114.1" cy="138.4" r="4.4"/>
			<circle id="XMLID_350_" class="st2" cx="114.1" cy="158.6" r="4.4"/>
			<circle id="XMLID_349_" class="st2" cx="114.1" cy="178.8" r="4.4"/>
			<circle id="XMLID_348_" class="st2" cx="114.1" cy="198.9" r="4.4"/>
			<circle id="XMLID_347_" class="st2" cx="114.1" cy="219.1" r="4.4"/>
			<circle id="XMLID_346_" class="st2" cx="114.1" cy="239.3" r="4.4"/>
			<circle id="XMLID_345_" class="st2" cx="114.1" cy="259.5" r="4.4"/>
		</g>
		<g id="XMLID_330_">
			<circle id="XMLID_343_" class="st2" cx="90.6" cy="17.3" r="4.4"/>
			<circle id="XMLID_342_" class="st2" cx="90.6" cy="37.5" r="4.4"/>
			<circle id="XMLID_341_" class="st2" cx="90.6" cy="57.7" r="4.4"/>
			<circle id="XMLID_340_" class="st2" cx="90.6" cy="77.9" r="4.4"/>
			<circle id="XMLID_339_" class="st2" cx="90.6" cy="98.1" r="4.4"/>
			<circle id="XMLID_338_" class="st2" cx="90.6" cy="118.2" r="4.4"/>
			<circle id="XMLID_337_" class="st2" cx="90.6" cy="138.4" r="4.4"/>
			<circle id="XMLID_336_" class="st2" cx="90.6" cy="158.6" r="4.4"/>
			<circle id="XMLID_335_" class="st2" cx="90.6" cy="178.8" r="4.4"/>
			<circle id="XMLID_334_" class="st2" cx="90.6" cy="198.9" r="4.4"/>
			<circle id="XMLID_333_" class="st2" cx="90.6" cy="219.1" r="4.4"/>
			<circle id="XMLID_332_" class="st2" cx="90.6" cy="239.3" r="4.4"/>
			<circle id="XMLID_331_" class="st2" cx="90.6" cy="259.5" r="4.4"/>
		</g>
		<g id="XMLID_316_">
			<circle id="XMLID_329_" class="st2" cx="67" cy="17.3" r="4.4"/>
			<circle id="XMLID_328_" class="st2" cx="67" cy="37.5" r="4.4"/>
			<circle id="XMLID_327_" class="st2" cx="67" cy="57.7" r="4.4"/>
			<circle id="XMLID_326_" class="st2" cx="67" cy="77.9" r="4.4"/>
			<circle id="XMLID_325_" class="st2" cx="67" cy="98.1" r="4.4"/>
			<circle id="XMLID_324_" class="st2" cx="67" cy="118.2" r="4.4"/>
			<circle id="XMLID_323_" class="st2" cx="67" cy="138.4" r="4.4"/>
			<circle id="XMLID_322_" class="st2" cx="67" cy="158.6" r="4.4"/>
			<circle id="XMLID_321_" class="st2" cx="67" cy="178.8" r="4.4"/>
			<circle id="XMLID_320_" class="st2" cx="67" cy="198.9" r="4.4"/>
			<circle id="XMLID_319_" class="st2" cx="67" cy="219.1" r="4.4"/>
			<circle id="XMLID_318_" class="st2" cx="67" cy="239.3" r="4.4"/>
			<circle id="XMLID_317_" class="st2" cx="67" cy="259.5" r="4.4"/>
		</g>
		<g id="XMLID_302_">
			<circle id="XMLID_315_" class="st2" cx="43.4" cy="17.3" r="4.4"/>
			<circle id="XMLID_314_" class="st2" cx="43.4" cy="37.5" r="4.4"/>
			<circle id="XMLID_313_" class="st2" cx="43.4" cy="57.7" r="4.4"/>
			<circle id="XMLID_312_" class="st2" cx="43.4" cy="77.9" r="4.4"/>
			<circle id="XMLID_311_" class="st2" cx="43.4" cy="98.1" r="4.4"/>
			<circle id="XMLID_310_" class="st2" cx="43.4" cy="118.2" r="4.4"/>
			<circle id="XMLID_309_" class="st2" cx="43.4" cy="138.4" r="4.4"/>
			<circle id="XMLID_308_" class="st2" cx="43.4" cy="158.6" r="4.4"/>
			<circle id="XMLID_307_" class="st2" cx="43.4" cy="178.8" r="4.4"/>
			<circle id="XMLID_306_" class="st2" cx="43.4" cy="198.9" r="4.4"/>
			<circle id="XMLID_305_" class="st2" cx="43.4" cy="219.1" r="4.4"/>
			<circle id="XMLID_304_" class="st2" cx="43.4" cy="239.3" r="4.4"/>
			<circle id="XMLID_303_" class="st2" cx="43.4" cy="259.5" r="4.4"/>
		</g>
		<g id="XMLID_288_">
			<circle id="XMLID_301_" class="st2" cx="19.9" cy="17.3" r="4.4"/>
			<circle id="XMLID_300_" class="st2" cx="19.9" cy="37.5" r="4.4"/>
			<circle id="XMLID_299_" class="st2" cx="19.9" cy="57.7" r="4.4"/>
			<circle id="XMLID_298_" class="st2" cx="19.9" cy="77.9" r="4.4"/>
			<circle id="XMLID_297_" class="st2" cx="19.9" cy="98.1" r="4.4"/>
			<circle id="XMLID_296_" class="st2" cx="19.9" cy="118.2" r="4.4"/>
			<circle id="XMLID_295_" class="st2" cx="19.9" cy="138.4" r="4.4"/>
			<circle id="XMLID_294_" class="st2" cx="19.9" cy="158.6" r="4.4"/>
			<circle id="XMLID_293_" class="st2" cx="19.9" cy="178.8" r="4.4"/>
			<circle id="XMLID_292_" class="st2" cx="19.9" cy="198.9" r="4.4"/>
			<circle id="XMLID_291_" class="st2" cx="19.9" cy="219.1" r="4.4"/>
			<circle id="XMLID_290_" class="st2" cx="19.9" cy="239.3" r="4.4"/>
			<circle id="XMLID_289_" class="st2" cx="19.9" cy="259.5" r="4.4"/>
		</g>
	</g>
	<g id="XMLID_216_">
		<g id="XMLID_273_">
			<circle id="XMLID_286_" class="st0" cx="1263" cy="1953.2" r="4.4"/>
			<circle id="XMLID_285_" class="st0" cx="1263" cy="1973.4" r="4.4"/>
			<circle id="XMLID_284_" class="st0" cx="1263" cy="1993.6" r="4.4"/>
			<circle id="XMLID_283_" class="st0" cx="1263" cy="2013.7" r="4.4"/>
			<circle id="XMLID_282_" class="st0" cx="1263" cy="2033.9" r="4.4"/>
			<circle id="XMLID_281_" class="st0" cx="1263" cy="2054.1" r="4.4"/>
			<circle id="XMLID_280_" class="st0" cx="1263" cy="2074.3" r="4.4"/>
			<circle id="XMLID_279_" class="st0" cx="1263" cy="2094.4" r="4.4"/>
			<circle id="XMLID_278_" class="st0" cx="1263" cy="2114.6" r="4.4"/>
			<circle id="XMLID_277_" class="st0" cx="1263" cy="2134.8" r="4.4"/>
			<circle id="XMLID_276_" class="st0" cx="1263" cy="2155" r="4.4"/>
			<circle id="XMLID_275_" class="st0" cx="1263" cy="2175.2" r="4.4"/>
			<circle id="XMLID_274_" class="st0" cx="1263" cy="2195.3" r="4.4"/>
		</g>
		<g id="XMLID_259_">
			<circle id="XMLID_272_" class="st0" cx="1239.4" cy="1953.2" r="4.4"/>
			<circle id="XMLID_271_" class="st0" cx="1239.4" cy="1973.4" r="4.4"/>
			<circle id="XMLID_270_" class="st0" cx="1239.4" cy="1993.6" r="4.4"/>
			<circle id="XMLID_269_" class="st0" cx="1239.4" cy="2013.7" r="4.4"/>
			<circle id="XMLID_268_" class="st0" cx="1239.4" cy="2033.9" r="4.4"/>
			<circle id="XMLID_267_" class="st0" cx="1239.4" cy="2054.1" r="4.4"/>
			<circle id="XMLID_266_" class="st0" cx="1239.4" cy="2074.3" r="4.4"/>
			<circle id="XMLID_265_" class="st0" cx="1239.4" cy="2094.4" r="4.4"/>
			<circle id="XMLID_264_" class="st0" cx="1239.4" cy="2114.6" r="4.4"/>
			<circle id="XMLID_263_" class="st0" cx="1239.4" cy="2134.8" r="4.4"/>
			<circle id="XMLID_262_" class="st0" cx="1239.4" cy="2155" r="4.4"/>
			<circle id="XMLID_261_" class="st0" cx="1239.4" cy="2175.2" r="4.4"/>
			<circle id="XMLID_260_" class="st0" cx="1239.4" cy="2195.3" r="4.4"/>
		</g>
		<g id="XMLID_245_">
			<circle id="XMLID_258_" class="st0" cx="1215.8" cy="1953.2" r="4.4"/>
			<circle id="XMLID_257_" class="st0" cx="1215.8" cy="1973.4" r="4.4"/>
			<circle id="XMLID_256_" class="st0" cx="1215.8" cy="1993.6" r="4.4"/>
			<circle id="XMLID_255_" class="st0" cx="1215.8" cy="2013.7" r="4.4"/>
			<circle id="XMLID_254_" class="st0" cx="1215.8" cy="2033.9" r="4.4"/>
			<circle id="XMLID_253_" class="st0" cx="1215.8" cy="2054.1" r="4.4"/>
			<circle id="XMLID_252_" class="st0" cx="1215.8" cy="2074.3" r="4.4"/>
			<circle id="XMLID_251_" class="st0" cx="1215.8" cy="2094.4" r="4.4"/>
			<circle id="XMLID_250_" class="st0" cx="1215.8" cy="2114.6" r="4.4"/>
			<circle id="XMLID_249_" class="st0" cx="1215.8" cy="2134.8" r="4.4"/>
			<circle id="XMLID_248_" class="st0" cx="1215.8" cy="2155" r="4.4"/>
			<circle id="XMLID_247_" class="st0" cx="1215.8" cy="2175.2" r="4.4"/>
			<circle id="XMLID_246_" class="st0" cx="1215.8" cy="2195.3" r="4.4"/>
		</g>
		<g id="XMLID_231_">
			<circle id="XMLID_244_" class="st0" cx="1192.3" cy="1953.2" r="4.4"/>
			<circle id="XMLID_243_" class="st0" cx="1192.3" cy="1973.4" r="4.4"/>
			<circle id="XMLID_242_" class="st0" cx="1192.3" cy="1993.6" r="4.4"/>
			<circle id="XMLID_241_" class="st0" cx="1192.3" cy="2013.7" r="4.4"/>
			<circle id="XMLID_240_" class="st0" cx="1192.3" cy="2033.9" r="4.4"/>
			<circle id="XMLID_239_" class="st0" cx="1192.3" cy="2054.1" r="4.4"/>
			<circle id="XMLID_238_" class="st0" cx="1192.3" cy="2074.3" r="4.4"/>
			<circle id="XMLID_237_" class="st0" cx="1192.3" cy="2094.4" r="4.4"/>
			<circle id="XMLID_236_" class="st0" cx="1192.3" cy="2114.6" r="4.4"/>
			<circle id="XMLID_235_" class="st0" cx="1192.3" cy="2134.8" r="4.4"/>
			<circle id="XMLID_234_" class="st0" cx="1192.3" cy="2155" r="4.4"/>
			<circle id="XMLID_233_" class="st0" cx="1192.3" cy="2175.2" r="4.4"/>
			<circle id="XMLID_232_" class="st0" cx="1192.3" cy="2195.3" r="4.4"/>
		</g>
		<g id="XMLID_217_">
			<circle id="XMLID_230_" class="st0" cx="1168.7" cy="1953.2" r="4.4"/>
			<circle id="XMLID_229_" class="st0" cx="1168.7" cy="1973.4" r="4.4"/>
			<circle id="XMLID_228_" class="st0" cx="1168.7" cy="1993.6" r="4.4"/>
			<circle id="XMLID_227_" class="st0" cx="1168.7" cy="2013.7" r="4.4"/>
			<circle id="XMLID_226_" class="st0" cx="1168.7" cy="2033.9" r="4.4"/>
			<circle id="XMLID_225_" class="st0" cx="1168.7" cy="2054.1" r="4.4"/>
			<circle id="XMLID_224_" class="st0" cx="1168.7" cy="2074.3" r="4.4"/>
			<circle id="XMLID_223_" class="st0" cx="1168.7" cy="2094.4" r="4.4"/>
			<circle id="XMLID_222_" class="st0" cx="1168.7" cy="2114.6" r="4.4"/>
			<circle id="XMLID_221_" class="st0" cx="1168.7" cy="2134.8" r="4.4"/>
			<circle id="XMLID_220_" class="st0" cx="1168.7" cy="2155" r="4.4"/>
			<circle id="XMLID_219_" class="st0" cx="1168.7" cy="2175.2" r="4.4"/>
			<circle id="XMLID_218_" class="st0" cx="1168.7" cy="2195.3" r="4.4"/>
		</g>
	</g>
	<g id="XMLID_145_">
		<g id="XMLID_202_">
			<circle id="XMLID_215_" class="st3" cx="1266.2" cy="96.6" r="3.8"/>
			<circle id="XMLID_214_" class="st3" cx="1248.8" cy="96.6" r="3.8"/>
			<circle id="XMLID_213_" class="st3" cx="1231.3" cy="96.6" r="3.8"/>
			<circle id="XMLID_212_" class="st3" cx="1213.9" cy="96.6" r="3.8"/>
			<circle id="XMLID_211_" class="st3" cx="1196.5" cy="96.6" r="3.8"/>
			<circle id="XMLID_210_" class="st3" cx="1179.1" cy="96.6" r="3.8"/>
			<circle id="XMLID_209_" class="st3" cx="1161.6" cy="96.6" r="3.8"/>
			<circle id="XMLID_208_" class="st3" cx="1144.2" cy="96.6" r="3.8"/>
			<circle id="XMLID_207_" class="st3" cx="1126.8" cy="96.6" r="3.8"/>
			<circle id="XMLID_206_" class="st3" cx="1109.3" cy="96.6" r="3.8"/>
			<circle id="XMLID_205_" class="st3" cx="1091.9" cy="96.6" r="3.8"/>
			<circle id="XMLID_204_" class="st3" cx="1074.5" cy="96.6" r="3.8"/>
			<circle id="XMLID_203_" class="st3" cx="1057" cy="96.6" r="3.8"/>
		</g>
		<g id="XMLID_188_">
			<circle id="XMLID_201_" class="st3" cx="1266.2" cy="76.3" r="3.8"/>
			<circle id="XMLID_200_" class="st3" cx="1248.8" cy="76.3" r="3.8"/>
			<circle id="XMLID_199_" class="st3" cx="1231.3" cy="76.3" r="3.8"/>
			<circle id="XMLID_198_" class="st3" cx="1213.9" cy="76.3" r="3.8"/>
			<circle id="XMLID_197_" class="st3" cx="1196.5" cy="76.3" r="3.8"/>
			<circle id="XMLID_196_" class="st3" cx="1179.1" cy="76.3" r="3.8"/>
			<circle id="XMLID_195_" class="st3" cx="1161.6" cy="76.3" r="3.8"/>
			<circle id="XMLID_194_" class="st3" cx="1144.2" cy="76.3" r="3.8"/>
			<circle id="XMLID_193_" class="st3" cx="1126.8" cy="76.3" r="3.8"/>
			<circle id="XMLID_192_" class="st3" cx="1109.3" cy="76.3" r="3.8"/>
			<circle id="XMLID_191_" class="st3" cx="1091.9" cy="76.3" r="3.8"/>
			<circle id="XMLID_190_" class="st3" cx="1074.5" cy="76.3" r="3.8"/>
			<circle id="XMLID_189_" class="st3" cx="1057" cy="76.3" r="3.8"/>
		</g>
		<g id="XMLID_174_">
			<circle id="XMLID_187_" class="st3" cx="1266.2" cy="55.9" r="3.8"/>
			<circle id="XMLID_186_" class="st3" cx="1248.8" cy="55.9" r="3.8"/>
			<circle id="XMLID_185_" class="st3" cx="1231.3" cy="55.9" r="3.8"/>
			<circle id="XMLID_184_" class="st3" cx="1213.9" cy="55.9" r="3.8"/>
			<circle id="XMLID_183_" class="st3" cx="1196.5" cy="55.9" r="3.8"/>
			<circle id="XMLID_182_" class="st3" cx="1179.1" cy="55.9" r="3.8"/>
			<circle id="XMLID_181_" class="st3" cx="1161.6" cy="55.9" r="3.8"/>
			<circle id="XMLID_180_" class="st3" cx="1144.2" cy="55.9" r="3.8"/>
			<circle id="XMLID_179_" class="st3" cx="1126.8" cy="55.9" r="3.8"/>
			<circle id="XMLID_178_" class="st3" cx="1109.3" cy="55.9" r="3.8"/>
			<circle id="XMLID_177_" class="st3" cx="1091.9" cy="55.9" r="3.8"/>
			<circle id="XMLID_176_" class="st3" cx="1074.5" cy="55.9" r="3.8"/>
			<circle id="XMLID_175_" class="st3" cx="1057" cy="55.9" r="3.8"/>
		</g>
		<g id="XMLID_160_">
			<circle id="XMLID_173_" class="st3" cx="1266.2" cy="35.5" r="3.8"/>
			<circle id="XMLID_172_" class="st3" cx="1248.8" cy="35.5" r="3.8"/>
			<circle id="XMLID_171_" class="st3" cx="1231.3" cy="35.5" r="3.8"/>
			<circle id="XMLID_170_" class="st3" cx="1213.9" cy="35.5" r="3.8"/>
			<circle id="XMLID_169_" class="st3" cx="1196.5" cy="35.5" r="3.8"/>
			<circle id="XMLID_168_" class="st3" cx="1179.1" cy="35.5" r="3.8"/>
			<circle id="XMLID_167_" class="st3" cx="1161.6" cy="35.5" r="3.8"/>
			<circle id="XMLID_166_" class="st3" cx="1144.2" cy="35.5" r="3.8"/>
			<circle id="XMLID_165_" class="st3" cx="1126.8" cy="35.5" r="3.8"/>
			<circle id="XMLID_164_" class="st3" cx="1109.3" cy="35.5" r="3.8"/>
			<circle id="XMLID_163_" class="st3" cx="1091.9" cy="35.5" r="3.8"/>
			<circle id="XMLID_162_" class="st3" cx="1074.5" cy="35.5" r="3.8"/>
			<circle id="XMLID_161_" class="st3" cx="1057" cy="35.5" r="3.8"/>
		</g>
		<g id="XMLID_146_">
			<circle id="XMLID_159_" class="st3" cx="1266.2" cy="15.2" r="3.8"/>
			<circle id="XMLID_158_" class="st3" cx="1248.8" cy="15.2" r="3.8"/>
			<circle id="XMLID_157_" class="st3" cx="1231.3" cy="15.2" r="3.8"/>
			<circle id="XMLID_156_" class="st3" cx="1213.9" cy="15.2" r="3.8"/>
			<circle id="XMLID_155_" class="st3" cx="1196.5" cy="15.2" r="3.8"/>
			<circle id="XMLID_154_" class="st3" cx="1179.1" cy="15.2" r="3.8"/>
			<circle id="XMLID_153_" class="st3" cx="1161.6" cy="15.2" r="3.8"/>
			<circle id="XMLID_152_" class="st3" cx="1144.2" cy="15.2" r="3.8"/>
			<circle id="XMLID_151_" class="st3" cx="1126.8" cy="15.2" r="3.8"/>
			<circle id="XMLID_150_" class="st3" cx="1109.3" cy="15.2" r="3.8"/>
			<circle id="XMLID_149_" class="st3" cx="1091.9" cy="15.2" r="3.8"/>
			<circle id="XMLID_148_" class="st3" cx="1074.5" cy="15.2" r="3.8"/>
			<circle id="XMLID_147_" class="st3" cx="1057" cy="15.2" r="3.8"/>
		</g>
	</g>
	<g id="XMLID_2_">
		<g id="XMLID_828_">
			<g id="XMLID_885_">
				<circle id="XMLID_898_" class="st3" cx="166.5" cy="2184.6" r="2.9"/>
				<circle id="XMLID_897_" class="st3" cx="153.3" cy="2184.6" r="2.9"/>
				<circle id="XMLID_896_" class="st3" cx="140.1" cy="2184.6" r="2.9"/>
				<circle id="XMLID_895_" class="st3" cx="126.9" cy="2184.6" r="2.9"/>
				<circle id="XMLID_894_" class="st3" cx="113.7" cy="2184.6" r="2.9"/>
				<circle id="XMLID_893_" class="st3" cx="100.5" cy="2184.6" r="2.9"/>
				<circle id="XMLID_892_" class="st3" cx="87.3" cy="2184.6" r="2.9"/>
				<circle id="XMLID_891_" class="st3" cx="74.1" cy="2184.6" r="2.9"/>
				<circle id="XMLID_890_" class="st3" cx="60.9" cy="2184.6" r="2.9"/>
				<circle id="XMLID_889_" class="st3" cx="47.7" cy="2184.6" r="2.9"/>
				<circle id="XMLID_888_" class="st3" cx="34.5" cy="2184.6" r="2.9"/>
				<circle id="XMLID_887_" class="st3" cx="21.2" cy="2184.6" r="2.9"/>
				<circle id="XMLID_886_" class="st3" cx="8" cy="2184.6" r="2.9"/>
			</g>
			<g id="XMLID_871_">
				<circle id="XMLID_884_" class="st3" cx="166.5" cy="2169.2" r="2.9"/>
				<circle id="XMLID_883_" class="st3" cx="153.3" cy="2169.2" r="2.9"/>
				<circle id="XMLID_882_" class="st3" cx="140.1" cy="2169.2" r="2.9"/>
				<circle id="XMLID_881_" class="st3" cx="126.9" cy="2169.2" r="2.9"/>
				<circle id="XMLID_880_" class="st3" cx="113.7" cy="2169.2" r="2.9"/>
				<circle id="XMLID_879_" class="st3" cx="100.5" cy="2169.2" r="2.9"/>
				<circle id="XMLID_878_" class="st3" cx="87.3" cy="2169.2" r="2.9"/>
				<circle id="XMLID_877_" class="st3" cx="74.1" cy="2169.2" r="2.9"/>
				<circle id="XMLID_876_" class="st3" cx="60.9" cy="2169.2" r="2.9"/>
				<circle id="XMLID_875_" class="st3" cx="47.7" cy="2169.2" r="2.9"/>
				<circle id="XMLID_874_" class="st3" cx="34.5" cy="2169.2" r="2.9"/>
				<circle id="XMLID_873_" class="st3" cx="21.2" cy="2169.2" r="2.9"/>
				<circle id="XMLID_872_" class="st3" cx="8" cy="2169.2" r="2.9"/>
			</g>
			<g id="XMLID_857_">
				<circle id="XMLID_870_" class="st3" cx="166.5" cy="2153.7" r="2.9"/>
				<circle id="XMLID_869_" class="st3" cx="153.3" cy="2153.7" r="2.9"/>
				<circle id="XMLID_868_" class="st3" cx="140.1" cy="2153.7" r="2.9"/>
				<circle id="XMLID_867_" class="st3" cx="126.9" cy="2153.7" r="2.9"/>
				<circle id="XMLID_866_" class="st3" cx="113.7" cy="2153.7" r="2.9"/>
				<circle id="XMLID_865_" class="st3" cx="100.5" cy="2153.7" r="2.9"/>
				<circle id="XMLID_864_" class="st3" cx="87.3" cy="2153.7" r="2.9"/>
				<circle id="XMLID_863_" class="st3" cx="74.1" cy="2153.7" r="2.9"/>
				<circle id="XMLID_862_" class="st3" cx="60.9" cy="2153.7" r="2.9"/>
				<circle id="XMLID_861_" class="st3" cx="47.7" cy="2153.7" r="2.9"/>
				<circle id="XMLID_860_" class="st3" cx="34.5" cy="2153.7" r="2.9"/>
				<circle id="XMLID_859_" class="st3" cx="21.2" cy="2153.7" r="2.9"/>
				<circle id="XMLID_858_" class="st3" cx="8" cy="2153.7" r="2.9"/>
			</g>
			<g id="XMLID_843_">
				<circle id="XMLID_856_" class="st3" cx="166.5" cy="2138.3" r="2.9"/>
				<circle id="XMLID_855_" class="st3" cx="153.3" cy="2138.3" r="2.9"/>
				<circle id="XMLID_854_" class="st3" cx="140.1" cy="2138.3" r="2.9"/>
				<circle id="XMLID_853_" class="st3" cx="126.9" cy="2138.3" r="2.9"/>
				<circle id="XMLID_852_" class="st3" cx="113.7" cy="2138.3" r="2.9"/>
				<circle id="XMLID_851_" class="st3" cx="100.5" cy="2138.3" r="2.9"/>
				<circle id="XMLID_850_" class="st3" cx="87.3" cy="2138.3" r="2.9"/>
				<circle id="XMLID_849_" class="st3" cx="74.1" cy="2138.3" r="2.9"/>
				<circle id="XMLID_848_" class="st3" cx="60.9" cy="2138.3" r="2.9"/>
				<circle id="XMLID_847_" class="st3" cx="47.7" cy="2138.3" r="2.9"/>
				<circle id="XMLID_846_" class="st3" cx="34.5" cy="2138.3" r="2.9"/>
				<circle id="XMLID_845_" class="st3" cx="21.2" cy="2138.3" r="2.9"/>
				<circle id="XMLID_844_" class="st3" cx="8" cy="2138.3" r="2.9"/>
			</g>
			<g id="XMLID_829_">
				<circle id="XMLID_842_" class="st3" cx="166.5" cy="2122.9" r="2.9"/>
				<circle id="XMLID_841_" class="st3" cx="153.3" cy="2122.9" r="2.9"/>
				<circle id="XMLID_840_" class="st3" cx="140.1" cy="2122.9" r="2.9"/>
				<circle id="XMLID_839_" class="st3" cx="126.9" cy="2122.9" r="2.9"/>
				<circle id="XMLID_838_" class="st3" cx="113.7" cy="2122.9" r="2.9"/>
				<circle id="XMLID_837_" class="st3" cx="100.5" cy="2122.9" r="2.9"/>
				<circle id="XMLID_836_" class="st3" cx="87.3" cy="2122.9" r="2.9"/>
				<circle id="XMLID_835_" class="st3" cx="74.1" cy="2122.9" r="2.9"/>
				<circle id="XMLID_834_" class="st3" cx="60.9" cy="2122.9" r="2.9"/>
				<circle id="XMLID_833_" class="st3" cx="47.7" cy="2122.9" r="2.9"/>
				<circle id="XMLID_832_" class="st3" cx="34.5" cy="2122.9" r="2.9"/>
				<circle id="XMLID_831_" class="st3" cx="21.2" cy="2122.9" r="2.9"/>
				<circle id="XMLID_830_" class="st3" cx="8" cy="2122.9" r="2.9"/>
			</g>
		</g>
	</g>
</g>
</svg>
