<?xml version="1.0" encoding="utf-8"?>
<!-- Generator: Adobe Illustrator 19.0.0, SVG Export Plug-In . SVG Version: 6.00 Build 0)  -->
<svg version="1.1" id="Layer_1" xmlns="http://www.w3.org/2000/svg" xmlns:xlink="http://www.w3.org/1999/xlink" x="0px" y="0px"
	 viewBox="0 0 412 284" style="enable-background:new 0 0 412 284;" xml:space="preserve">
<style type="text/css">
	.st0{display:none;}
	.st1{display:inline;}
	.st2{fill:#000212;}
	.st3{fill:#FFC13A;stroke:#333331;stroke-width:3;stroke-linecap:round;stroke-linejoin:round;stroke-miterlimit:10;}
	.st4{fill:none;stroke:#333331;stroke-width:3;stroke-linecap:round;stroke-linejoin:round;stroke-miterlimit:10;}
	.st5{fill:#FFFFFF;}
	.st6{fill:#FFFFFF;stroke:#333331;stroke-width:3;stroke-linecap:round;stroke-linejoin:round;stroke-miterlimit:10;}
	.st7{fill:#FFC13A;}
	.st8{display:inline;fill:none;stroke:#000212;stroke-width:3;stroke-miterlimit:10;}
	
		.st9{display:inline;fill:#FFC13A;stroke:#333331;stroke-width:3;stroke-linecap:round;stroke-linejoin:round;stroke-miterlimit:10;}
	
		.st10{display:inline;fill:#FFFFFF;stroke:#333331;stroke-width:3;stroke-linecap:round;stroke-linejoin:round;stroke-miterlimit:10;}
	.st11{fill:none;stroke:#000212;stroke-width:3;stroke-miterlimit:10;}
</style>
<g id="hello" class="st0">
	<g id="XMLID_118_" class="st1">
		<path id="XMLID_119_" class="st2" d="M121.7,103.2c0-7.1-0.1-21.1-0.2-32c-0.1-11.3-0.5-28.9-0.3-35.3c0.8-0.4,1.5-0.5,2.8-0.5
			c1.8,0,3,0.7,3,3c0,6-0.1,18.1,0,30.6v1c5.1-0.2,10.2-0.3,15.2-0.2c-0.1-10.8-0.7-27.8-1.1-33.6c0.8-0.5,1.9-0.7,3.6-0.7
			c1.8,0,2.9,0.9,2.9,3.1c0,6.2,0.1,22.3,0.1,33.5c0.1,11.8,0.5,27.3,0.5,33.2c-0.7,0.5-1.1,0.9-2.7,0.9c-1.9,0-3.1-1-3.1-2.9
			c0-6.4,0.1-17.9,0-28.2c-5-0.2-10.1-0.2-15.2-0.2c0.1,12.8,0.2,25.7,0.3,30.4c-0.7,0.4-1.2,0.7-3,0.7
			C122.9,106.1,121.7,105.2,121.7,103.2z"/>
		<path id="XMLID_121_" class="st2" d="M161.8,82.4c0.4,12.6,3,19,8.4,19c2.9,0,4.8-2.2,5.4-4.4c0.4-0.4,1.1-0.6,1.9-0.6
			c1.2,0,2.2,0.8,2.2,2.4c0,1.4-0.4,2.5-1.5,3.8c-1.6,1.7-3.8,3.6-8.4,3.6c-10,0-13.2-11.7-13.2-28.4c0-17.1,4.8-26.7,12.1-26.7
			c7.1,0,10.7,8.8,10.7,26.2c0,1.5-0.3,3.8-0.7,4.9C173.5,82.4,167.1,82.2,161.8,82.4z M161.7,77.8c4.2-0.1,8.6-0.1,12.5-0.3
			c-0.1-13.7-2.3-20.7-5.8-20.7C164.7,56.8,161.8,62.6,161.7,77.8z"/>
		<path id="XMLID_124_" class="st2" d="M187.8,92.9c-0.4-20.4,0.3-37.4-0.1-60.5c0.5-0.7,1.3-1,2.8-1.1c1.9,0,2.9,1.4,2.9,3.2
			c0,21.3-0.7,39.2-0.5,57.3c0.1,6,1.9,8.9,6.1,8.9c1.1,0,2.2-0.2,3.2-0.5c0.6,0.7,0.8,1.9,0.8,3.2c0,2.1-2.6,3.2-5.4,3.2
			C191.3,106.5,187.9,102.6,187.8,92.9z M205.6,92.4c-0.3-20.4,0.3-38.8-0.1-61.9c0.5-0.6,1.4-1,2.8-1c1.9-0.1,2.9,1.4,2.9,3.2
			c0,21.3-0.7,40.6-0.5,58.6c0.1,5.7,2.4,9.4,6.7,9.4c1.6,0,2.6-0.3,3.8-1c0.8,0.6,1.2,1.7,1.2,3c0,2.5-2.7,3.8-5.5,3.8
			C209.9,106.4,205.7,101.4,205.6,92.4z"/>
		<path id="XMLID_127_" class="st2" d="M224.7,78.5c-0.1-18.3,4.6-27.3,13-27.1c7.2,0.2,11.9,9.5,11.9,25.5
			c0.1,21.9-6,29.5-12.1,29.5C230,106.4,224.7,97.6,224.7,78.5z M230.1,78.5c0.1,14.5,2.5,22.4,7.3,22.6c3.8,0.1,6.9-8.4,6.8-24.1
			c-0.1-12.3-2.4-19.9-6.9-19.9C232.6,57.1,230.1,64.3,230.1,78.5z"/>
		<path id="XMLID_130_" class="st2" d="M260.8,106.1c-3.7-0.3-5-2-5-5.7c0-2.7,0.7-4,1.5-5c2-0.2,3.7-0.1,5.3,0.4
			c2.3,0.8,3.1,3,3.1,6c-0.1,5.3-3,13.2-6.7,13.2c-1.1,0-2.3-0.9-2.4-2.3C258.5,111.5,260,109.4,260.8,106.1z"/>
	</g>
	<g id="XMLID_98_" class="st1">
		<g id="XMLID_275_">
			<path id="XMLID_314_" class="st2" d="M134,148.4c-0.4,0.2-0.7,0.3-1.3,0.3c-0.7,0-1.1-0.5-1.1-1.2c0-0.5,0.2-11-0.1-15.2
				c-0.2-3.2-0.7-4.5-1.8-4.5c-1.6,0-3.4,3.9-3.4,8.1c0,4,0.1,8.5,0.2,12.5c-0.3,0.2-0.5,0.4-1.2,0.4c-0.6,0-1.1-0.3-1.1-1.1
				c0-7.3,0-15.1-0.2-22.4c0.2-0.3,0.6-0.5,1.1-0.6c0.7,0,1.3,0.2,1.2,1.2c0,1.5-0.1,3.2-0.2,5c0.7-3.7,2.5-6.2,4.3-6.2
				c1.8,0,2.8,1.7,3.2,5.2c1.1-3.4,2.7-5.2,4.4-5.1c2.1,0,3.2,2.3,3.3,7.1c0.1,5.2-0.1,10.9,0.3,16.1c-0.3,0.4-0.7,0.7-1.4,0.7
				c-0.8,0-1.2-0.5-1.2-1.3c0-5,0.1-9.7,0-14.7c-0.1-3.2-0.8-4.7-1.9-4.6c-1.7,0-3.2,3-3.2,6.7C133.8,139,133.9,144.5,134,148.4z"/>
			<path id="XMLID_312_" class="st2" d="M146.1,156.1c0-0.6,0.5-1.3,0.8-2c1.1-1.8,2.1-3.8,2.9-5.9c-0.3-0.1-0.5-0.3-0.6-0.7
				c-1.5-5-3.5-16.2-5.3-22.3c0.3-0.2,0.9-0.4,1.4-0.4c0.8,0,1.2,0.2,1.4,0.8c1.5,5.6,2.6,14.2,4.2,19.7c2.3-6.8,3.5-14.3,3.7-20.3
				c0.3-0.2,0.8-0.2,1.3-0.2c0.8,0,1.1,0.4,1.1,0.9c0,0.5,0,1.1-0.1,1.8c-0.4,4.5-1.2,9.4-2.6,14.2c-1.5,5-4.2,11.5-5.9,15.3
				c-0.3,0.1-0.8,0.2-1.3,0.2C146.6,157.3,146.1,156.8,146.1,156.1z"/>
			<path id="XMLID_310_" class="st2" d="M167.8,130.9c0.8-3.4,2.8-5.9,4.9-5.9c2.1,0,3.3,2.4,3.4,5.6c0,5.6-0.2,12.6,0,17.7
				c-0.2,0.3-0.6,0.5-1.3,0.5c-0.6,0-1.2-0.3-1.2-1.2c0-5.7,0.2-9.6,0.1-15.4c0-2.7-0.7-4.4-2-4.4c-1.8,0-3.7,4-3.7,7.8
				c0,4,0.1,8.9,0.2,12.6c-0.2,0.3-0.7,0.5-1.3,0.5c-0.9,0-1.2-0.6-1.2-1.1c0-7.2-0.1-15.2-0.5-22.4c0.2-0.2,0.6-0.5,1.4-0.5
				c0.8,0,1.3,0.6,1.2,1.3C167.8,127.5,167.8,129.2,167.8,130.9z"/>
			<path id="XMLID_307_" class="st2" d="M187.2,144.8c-0.8,2.2-2.3,3.9-4.1,3.9c-2.1,0-3.8-1.8-3.8-6.7c0-4.7,2.5-7.4,7.6-7.5
				c0-1.5,0-2.7,0-3.2c0-2.6-0.9-4.2-2.9-4.2c-1.4,0-2.2,0.8-2.5,2.5c-1.1,0.4-1.9-0.2-1.9-1.3c0-1,0.5-1.7,1-2.1
				c0.7-0.8,2-1.3,3.3-1.3c3.3,0,5.4,2,5.3,5.9c-0.1,2.7,0,15.7,0.1,17.7c-0.3,0.2-0.6,0.3-1.2,0.3c-0.7,0-1.2-0.3-1.2-1.1
				C187.1,147.5,187.1,146.1,187.2,144.8z M187,136.5c-3.9,0.2-5.5,1.8-5.5,5.5c0,2.7,0.9,4.3,2.2,4.3c1.8,0,3.3-2.5,3.3-5.8
				C187,139.3,187,137.9,187,136.5z"/>
			<path id="XMLID_305_" class="st2" d="M203.3,148.4c-0.4,0.2-0.7,0.3-1.3,0.3c-0.7,0-1.1-0.5-1.1-1.2c0-0.5,0.2-11-0.1-15.2
				c-0.2-3.2-0.7-4.5-1.8-4.5c-1.6,0-3.4,3.9-3.4,8.1c0,4,0.1,8.5,0.2,12.5c-0.3,0.2-0.5,0.4-1.2,0.4c-0.6,0-1.1-0.3-1.1-1.1
				c0-7.3,0-15.1-0.2-22.4c0.2-0.3,0.6-0.5,1.1-0.6c0.7,0,1.3,0.2,1.2,1.2c0,1.5-0.1,3.2-0.2,5c0.7-3.7,2.5-6.2,4.3-6.2
				c1.8,0,2.8,1.7,3.2,5.2c1.1-3.4,2.7-5.2,4.4-5.1c2.1,0,3.2,2.3,3.3,7.1c0.1,5.2-0.1,10.9,0.3,16.1c-0.3,0.4-0.7,0.7-1.4,0.7
				c-0.8,0-1.2-0.5-1.2-1.3c0-5,0.1-9.7,0-14.7c-0.1-3.2-0.8-4.7-1.9-4.6c-1.7,0-3.2,3-3.2,6.7C203,139,203.1,144.5,203.3,148.4z"/>
			<path id="XMLID_302_" class="st2" d="M216.2,138.4c0.2,5.5,1.3,8.2,3.6,8.2c1.3,0,2.1-1,2.3-1.9c0.2-0.2,0.5-0.2,0.8-0.2
				c0.5,0,0.9,0.3,0.9,1c0,0.6-0.2,1.1-0.7,1.7c-0.7,0.7-1.7,1.6-3.6,1.6c-4.3,0-5.7-5.1-5.7-12.3c0-7.4,2.1-11.6,5.2-11.6
				c3.1,0,4.6,3.8,4.6,11.3c0,0.7-0.1,1.7-0.3,2.1C221.3,138.4,218.5,138.3,216.2,138.4z M216.2,136.4c1.8,0,3.7,0,5.4-0.1
				c0-5.9-1-9-2.5-9C217.4,127.3,216.2,129.8,216.2,136.4z"/>
			<path id="XMLID_278_" class="st2" d="M232.8,147.6c0.3-7.2,0-16.5,0.2-22.5c0.2-0.2,0.5-0.3,1.1-0.3c0.6,0,1.2,0.4,1.2,1
				c-0.2,6.5-0.2,15.8-0.1,22.6c-0.2,0.2-0.5,0.3-1.1,0.3C233.5,148.7,232.7,148.4,232.8,147.6z M233.1,120.6c0-1.1,0-2.1,0-3.4
				c0.3-0.2,0.7-0.3,1.2-0.3c0.5,0,1.2,0.3,1.2,1c0,1.1,0,2.4,0,3.5c-0.3,0.2-0.8,0.4-1.2,0.4C233.5,121.7,233.1,121.3,233.1,120.6z
				"/>
			<path id="XMLID_276_" class="st2" d="M239.3,147.5c-0.3-0.3-0.6-0.9-0.6-1.4c0-0.6,0.5-1.2,1.1-1.2c0.6,0.5,1.6,1.6,3.2,1.6
				c1.8,0,2.9-1.4,2.9-3.3c0-3.8-6.7-6.8-6.7-12.2c0-3.7,1.9-6,4.8-6c1.1,0,2.3,0.3,3.1,1c0.4,0.4,0.7,0.8,0.7,1.6
				c0,0.7-0.6,1.2-1.2,1.2c-0.4-0.6-1.4-1.5-2.8-1.5c-1.5,0-2.4,1.4-2.4,3.3c0,4.7,6.9,7.4,6.9,12.4c0,3.4-2.4,5.7-5.3,5.7
				C241.2,148.7,240.1,148.2,239.3,147.5z"/>
		</g>
	</g>
	<g id="XMLID_2_" class="st1">
		<g id="XMLID_281_">
			<path id="XMLID_300_" class="st2" d="M124.7,190.9c0.1-10.4-0.1-21.3-0.1-31.3c0.4-0.2,0.8-0.3,1.4-0.3c0.9,0,1.3,0.6,1.6,1.4
				c2.8,8.4,5.6,16.6,8.4,24.2c0-5.8-0.2-11.3-0.4-16.6c-0.1-2.2-0.2-6.3-0.2-8.5c0.4-0.3,0.9-0.4,1.4-0.4c0.8,0,1.3,0.3,1.3,1.2
				c0,1.6,0,2.8,0,4.3c0,8.6,0.1,18,0.3,26.9c-0.3,0.2-0.7,0.4-1.3,0.4c-0.8,0-1.2-0.4-1.4-1c-2.7-7.9-6-16.8-8.7-24.7
				c0,9.3,0.4,17.6,0.4,25.3c-0.3,0.2-0.6,0.5-1.4,0.5C125.1,192.3,124.7,191.8,124.7,190.9z"/>
			<path id="XMLID_297_" class="st2" d="M153.7,188.1c-0.8,2.4-2.4,4.2-4.3,4.2c-2.2,0-4-2-4-7.1c0-5.1,2.6-7.8,8.1-8
				c0-1.6,0-2.9,0-3.4c0-2.8-1-4.5-3.1-4.5c-1.5,0-2.3,0.9-2.6,2.7c-1.2,0.4-2-0.2-2-1.4c0-1.1,0.5-1.8,1.1-2.3
				c0.7-0.8,2.2-1.4,3.6-1.4c3.6,0,5.7,2.1,5.6,6.3c-0.1,2.9,0,16.8,0.1,18.9c-0.3,0.2-0.6,0.3-1.3,0.3c-0.7,0-1.2-0.4-1.2-1.2
				C153.6,190.9,153.7,189.5,153.7,188.1z M153.5,179.2c-4.2,0.2-5.8,2-5.8,5.9c0,2.9,0.9,4.6,2.4,4.6c1.9,0,3.5-2.7,3.5-6.2
				C153.5,182.2,153.5,180.7,153.5,179.2z"/>
			<path id="XMLID_295_" class="st2" d="M167.3,169.4c-0.1,5.4-0.4,10.9-0.2,15.9c0.1,2.9,0.9,4.3,2.4,4.3c0.8,0,1.6-0.2,2.2-0.6
				c0.3,0.3,0.5,0.9,0.5,1.5c0,1.1-1.2,1.8-2.8,1.8c-3.2,0-4.7-2.6-4.7-7c0-5.2,0.1-10.7,0.1-15.9c-0.8,0-1.5,0-2.2,0
				c-0.7,0-1.2-0.4-1.2-1.2c0-0.7,0.3-1.2,0.5-1.3c0.9,0,1.8,0.1,2.8,0.1c0-2.4,0-4.8-0.1-7.1c0.3-0.2,0.7-0.3,1.3-0.3
				c0.8,0,1.1,0.4,1.2,1.1c0.1,2,0.1,4.2,0.1,6.3c1.3,0,2.6,0,3.7-0.1c0.8-0.1,1.2,0.4,1.2,1.2c0,0.6-0.2,1-0.3,1.3
				C170.5,169.3,168.9,169.3,167.3,169.4z"/>
			<path id="XMLID_293_" class="st2" d="M180.7,172.1c0.7-2.9,2.2-5.4,4.9-5.4c2.1,0,3.3,2.1,3.2,6.9c0,5.7,0.1,13,0.3,18.4
				c-0.2,0.1-0.7,0.3-1.4,0.3c-0.7,0-1.2-0.4-1.2-1.2c-0.2-6.4,0-12.9-0.1-16.8c-0.1-2.9-0.6-4.5-1.8-4.5c-2.8,0-3.7,5.4-3.8,7.5
				c-0.1,3.3-0.1,9.4,0.1,14.6c-0.3,0.2-0.6,0.4-1.3,0.4c-0.9,0-1.2-0.6-1.2-1.4c0.1-11.8,0.1-24.1-0.3-33.3
				c0.3-0.3,0.7-0.6,1.5-0.6c0.9,0,1.4,0.8,1.4,2.1C181,163.6,180.7,167.6,180.7,172.1z"/>
			<path id="XMLID_290_" class="st2" d="M204,188.1c-0.8,2.4-2.4,4.2-4.3,4.2c-2.2,0-4-2-4-7.1c0-5.1,2.6-7.8,8.1-8
				c0-1.6,0-2.9,0-3.4c0-2.8-1-4.5-3.1-4.5c-1.5,0-2.3,0.9-2.6,2.7c-1.2,0.4-2-0.2-2-1.4c0-1.1,0.5-1.8,1.1-2.3
				c0.7-0.8,2.2-1.4,3.6-1.4c3.6,0,5.7,2.1,5.6,6.3c-0.1,2.9,0,16.8,0.1,18.9c-0.3,0.2-0.6,0.3-1.3,0.3c-0.7,0-1.2-0.4-1.2-1.2
				C203.9,190.9,204,189.5,204,188.1z M203.8,179.2c-4.2,0.2-5.8,2-5.8,5.9c0,2.9,0.9,4.6,2.4,4.6c1.9,0,3.5-2.7,3.5-6.2
				C203.8,182.2,203.8,180.7,203.8,179.2z"/>
			<path id="XMLID_288_" class="st2" d="M213.7,185.6c-0.1-9.4,0.1-17.4,0-28.1c0.2-0.3,0.6-0.5,1.3-0.5c0.9,0,1.3,0.6,1.3,1.5
				c0,9.8-0.3,18.2-0.2,26.6c0,2.6,1.1,4.6,3.1,4.6c0.7,0,1.2-0.1,1.8-0.5c0.4,0.3,0.6,0.8,0.6,1.6c0,1-1.2,1.6-2.5,1.6
				C215.6,192.3,213.7,189.8,213.7,185.6z"/>
			<path id="XMLID_285_" class="st2" d="M226.6,191.1c0.3-7.7,0-17.6,0.2-24c0.3-0.2,0.6-0.3,1.2-0.3c0.6,0,1.3,0.4,1.2,1.1
				c-0.2,7-0.2,16.8-0.1,24.1c-0.2,0.2-0.5,0.3-1.2,0.3C227.4,192.3,226.5,191.9,226.6,191.1z M227,162.3c0-1.2,0-2.3,0-3.6
				c0.3-0.2,0.7-0.4,1.3-0.4c0.6,0,1.2,0.4,1.2,1c0,1.2,0,2.5,0,3.7c-0.4,0.2-0.8,0.4-1.3,0.4C227.4,163.5,227,163.1,227,162.3z"/>
			<path id="XMLID_282_" class="st2" d="M244.7,188.1c-0.8,2.4-2.4,4.2-4.3,4.2c-2.2,0-4-2-4-7.1c0-5.1,2.6-7.8,8.1-8
				c0-1.6,0-2.9,0-3.4c0-2.8-1-4.5-3.1-4.5c-1.5,0-2.3,0.9-2.6,2.7c-1.2,0.4-2-0.2-2-1.4c0-1.1,0.5-1.8,1.1-2.3
				c0.7-0.8,2.2-1.4,3.6-1.4c3.6,0,5.7,2.1,5.6,6.3c-0.1,2.9,0,16.8,0.1,18.9c-0.3,0.2-0.6,0.3-1.3,0.3c-0.7,0-1.2-0.4-1.2-1.2
				C244.6,190.9,244.6,189.5,244.7,188.1z M244.5,179.2c-4.2,0.2-5.8,2-5.8,5.9c0,2.9,0.9,4.6,2.4,4.6c1.9,0,3.5-2.7,3.5-6.2
				C244.5,182.2,244.5,180.7,244.5,179.2z"/>
		</g>
	</g>
	<g id="glasses" class="st1">
		<path id="XMLID_53_" class="st3" d="M204.4,249.2l-8.7,1.9c-8,1.7-16-3.4-17.7-11.4l-1.3-6c-0.8-3.7,0.6-7.6,3.6-10l3.1-2.4
			c5.4-4.2,12.1-6.4,18.9-6l6.4,0.3c5.4,0.3,9.6,4.8,9.4,10.2l-0.2,6.9C217.7,240.7,212.1,247.5,204.4,249.2z"/>
		<line id="XMLID_52_" class="st4" x1="176.6" y1="233.7" x2="168.4" y2="235.5"/>
		<path id="XMLID_51_" class="st3" d="M256.4,237.8l8.7-1.9c8-1.7,13.1-9.7,11.4-17.7l-1.3-6c-0.8-3.7-3.7-6.7-7.4-7.6l-3.8-0.9
			c-6.6-1.6-13.7-0.8-19.7,2.4l-5.7,3c-4.8,2.5-6.7,8.3-4.4,13.2l3,6.2C240.8,235.7,248.7,239.5,256.4,237.8z"/>
		<line id="XMLID_50_" class="st4" x1="275.2" y1="212.3" x2="283.5" y2="210.5"/>
		<path id="XMLID_49_" class="st4" d="M216.1,219.8c0,0,6.8-9.9,16.6-3.6"/>
		<g id="XMLID_46_">
			<path id="XMLID_47_" class="st5" d="M235.9,221.6l0.5,1.1c10.9-4.1,19.9-10.5,24.7-17.6c-3.1-0.5-6.3-0.3-9.4,0.3
				c-2.3,0.5-4.5,1.3-6.6,2.4l-5.7,3C235.6,212.8,234,217.5,235.9,221.6z"/>
			<path id="XMLID_48_" class="st5" d="M216.2,227.1l0-1.3c0.1-4.5-3.3-8.2-7.8-8.4c0,0,0,0,0,0l-6.4-0.3
				c-5.8-0.3-11.5,1.3-16.2,4.5C193.4,226.1,204.4,228.1,216.2,227.1z"/>
		</g>
	</g>
	<g id="notebook" class="st1">
		
			<rect id="XMLID_147_" x="299.2" y="77.5" transform="matrix(0.892 0.452 -0.452 0.892 90.6259 -138.2795)" class="st6" width="71.1" height="86"/>
		
			<rect id="XMLID_134_" x="294.5" y="70.9" transform="matrix(0.892 0.452 -0.452 0.892 89.0558 -136.4285)" class="st6" width="71.1" height="94.6"/>
		
			<rect id="XMLID_153_" x="280.7" y="85.7" transform="matrix(-0.452 0.892 -0.892 -0.452 578.5375 -122.3333)" class="st7" width="92.4" height="61.7"/>
		
			<rect id="XMLID_146_" x="328" y="115.8" transform="matrix(0.892 0.452 -0.452 0.892 93.4134 -143.1562)" class="st6" width="36.7" height="16.3"/>
		<polygon id="XMLID_148_" class="st6" points="371.6,100.5 367.5,95.3 361,95.1 367.8,81.6 378.5,87 		"/>
		
			<rect id="XMLID_149_" x="297.8" y="57" transform="matrix(0.892 0.452 -0.452 0.892 79.823 -125.5441)" class="st3" width="9.7" height="94.6"/>
	</g>
	<g id="pen" class="st1">
		
			<rect id="XMLID_151_" x="375.1" y="127.7" transform="matrix(0.8735 0.4869 -0.4869 0.8735 122.6993 -165.4511)" class="st3" width="9.2" height="51.3"/>
		<path id="XMLID_152_" class="st3" d="M397.2,121.8L397.2,121.8c-1.3-0.8-3-0.3-3.8,1.1l-3.7,6.7l4.9,2.7l3.7-6.7
			C399,124.3,398.6,122.6,397.2,121.8z"/>
		<path id="XMLID_155_" class="st3" d="M363.1,173.5l-0.6,7.2c-0.1,1.5,1.6,2.5,2.9,1.6l5.8-4.3L363.1,173.5z"/>
		
			<rect id="XMLID_154_" x="365.5" y="164.3" transform="matrix(0.8735 0.4869 -0.4869 0.8735 129.8026 -158.6614)" class="st6" width="9.2" height="12.2"/>
		<polyline id="XMLID_156_" class="st4" points="385.8,132.9 397.8,139.6 386.9,159.3 		"/>
	</g>
	<g id="postit" class="st1">
		<polygon id="XMLID_6_" class="st6" points="63.1,181.7 46.1,214.9 70.2,227.3 74.9,218.3 83.9,222.9 96.3,198.8 		"/>
		<polygon id="XMLID_5_" class="st6" points="70.2,227.3 83.9,222.9 74.9,218.3 		"/>
		<line id="XMLID_4_" class="st6" x1="59.9" y1="188" x2="68" y2="192.2"/>
		<line id="XMLID_3_" class="st6" x1="74.6" y1="195.5" x2="93.1" y2="205"/>
	</g>
</g>
<g id="love" class="st0">
	<path id="XMLID_137_" class="st8" d="M285.5,254L86.1,222.8c-4.2-0.7-7.1-4.7-6.5-8.9l23.9-152.6c0.7-4.2,4.7-7.1,8.9-6.5L311.8,86
		c4.2,0.7,7.1,4.7,6.5,8.9l-23.9,152.6C293.7,251.7,289.7,254.6,285.5,254z"/>
	<g id="XMLID_351_" class="st1">
		<path id="XMLID_352_" class="st2" d="M142.4,116.2c0.5-9.4,1-16.8,1.6-25.1c0.2-0.2,0.9-0.2,1.5-0.1c0.9,0.1,1.4,0.8,1.3,1.3
			c-0.5,6.5-1.5,13.1-1.9,19.4c1.4-3,3.6-7.8,5-10.9c0.2-0.1,0.5-0.1,1-0.1c0.6,0.1,1,0.4,1,1c0.4,3.3,1.2,8.3,2,11.5
			c1.4-6.4,2.4-13.5,3.6-20c0.3-0.2,0.9-0.2,1.5-0.1c0.8,0.1,1.2,0.6,1.2,1.2c0,0.3-0.1,0.7-0.3,1.7c-1.5,7.7-3.4,15.2-4.8,23.5
			c-0.4,0.1-0.9,0.2-1.5,0.1c-0.6-0.1-1.2-0.5-1.3-1.2c-0.6-4-1.4-9.4-2-13.4c-1.6,3.6-4.6,9.9-5.6,13c-0.4,0-0.9,0-1.3,0
			C142.6,117.7,142.3,117.2,142.4,116.2z"/>
		<path id="XMLID_354_" class="st2" d="M166.3,99.9c1.2-2.9,3.2-5.3,6-4.9c2.2,0.3,3.1,2.8,2.3,7.7c-1,6-2.1,13.6-2.7,19.4
			c-0.2,0.1-0.8,0.2-1.5,0.1c-0.8-0.1-1.1-0.6-1-1.5c0.9-6.8,2.1-13.5,2.6-17.6c0.4-3.1,0.1-4.8-1.2-5c-2.9-0.5-4.8,5.1-5.2,7.2
			c-0.6,3.5-1.6,9.8-2.3,15.3c-0.4,0.2-0.7,0.3-1.5,0.2c-0.9-0.1-1.2-0.9-1-1.6c2.1-12.3,4-25.3,5.2-35c0.4-0.3,0.8-0.5,1.7-0.4
			c0.9,0.1,1.3,1,1.1,2.4C168,91,167,95.2,166.3,99.9z"/>
		<path id="XMLID_356_" class="st2" d="M184.8,119.9c-1.2,2.3-3.2,4-5.2,3.6c-2.3-0.4-3.9-2.7-3-8.1c0.8-5.3,4-7.8,9.8-7
			c0.3-1.6,0.5-3,0.6-3.6c0.5-2.9-0.3-4.8-2.5-5.2c-1.5-0.2-2.6,0.5-3.2,2.4c-1.3,0.2-2.1-0.6-1.9-1.8c0.2-1.1,0.8-1.8,1.5-2.2
			c0.9-0.7,2.5-1.1,4-0.9c3.7,0.6,5.7,3.2,4.9,7.5c-0.6,3-2.7,17.6-2.9,19.8c-0.4,0.2-0.7,0.3-1.4,0.1c-0.8-0.1-1.3-0.6-1.1-1.4
			C184.3,122.9,184.5,121.4,184.8,119.9z M186,110.6c-4.4-0.4-6.4,1.1-7.1,5.2c-0.5,3,0.2,5,1.7,5.3c2,0.3,4.1-2.2,4.7-5.9
			C185.5,113.7,185.8,112.1,186,110.6z"/>
		<path id="XMLID_359_" class="st2" d="M198.9,102c-1,5.6-2.2,11.4-2.8,16.6c-0.4,3.1,0.2,4.7,1.8,4.9c0.8,0.1,1.7,0,2.4-0.2
			c0.3,0.4,0.4,1,0.3,1.6c-0.2,1.2-1.6,1.7-3.2,1.4c-3.3-0.5-4.5-3.5-3.8-8.1c0.8-5.4,1.9-11.2,2.8-16.7c-0.8-0.1-1.6-0.2-2.3-0.4
			c-0.8-0.1-1.1-0.6-1-1.4c0.1-0.7,0.6-1.3,0.8-1.3c0.9,0.2,1.9,0.4,2.9,0.5c0.4-2.6,0.8-5.1,1.1-7.4c0.4-0.2,0.8-0.2,1.5-0.1
			c0.9,0.1,1.1,0.6,1.1,1.3c-0.2,2.1-0.6,4.4-0.9,6.7c1.4,0.2,2.7,0.4,3.9,0.5c0.8,0.1,1.1,0.6,1,1.4c-0.1,0.7-0.4,1-0.5,1.3
			C202.2,102.5,200.6,102.2,198.9,102z"/>
		<path id="XMLID_361_" class="st2" d="M209.7,126.8c0.9-6,1.8-11.5,2.7-17.3c0.8-5.2,1.7-11.1,2.1-15.4c0.4-0.2,1.1-0.2,1.6-0.1
			c0.9,0.1,1.3,0.7,1.1,1.9c-0.6,3.9-1.5,9-2.2,14.2c-0.9,6.1-1.7,12.6-2.6,18.3c-0.4,0.1-0.9,0.2-1.5,0.1
			C210.1,128.5,209.5,127.9,209.7,126.8z"/>
		<path id="XMLID_363_" class="st2" d="M224.2,123.4c1.4-9.9,3-18.3,4.6-29.5c0.3-0.3,0.7-0.4,1.4-0.3c0.9,0.1,1.3,0.9,1.2,1.8
			c-1.6,10.3-3.3,19.1-4.6,27.9c-0.4,2.7,0.4,5,2.5,5.3c0.8,0.1,1.3,0.1,1.9-0.2c0.4,0.4,0.5,0.9,0.3,1.7c-0.2,1-1.6,1.5-2.9,1.2
			C225.2,130.8,223.6,127.8,224.2,123.4z"/>
		<path id="XMLID_365_" class="st2" d="M234.5,118.4c1.4-8.8,4.3-12.9,8.4-12.1c3.5,0.6,5,5.5,3.8,13.3c-1.6,10.6-5.2,13.8-8.1,13.4
			C235,132.3,233.1,127.6,234.5,118.4z M237.1,118.8c-1.1,7-0.5,11.1,1.8,11.5c1.9,0.3,4-3.6,5.1-11.2c0.9-5.9,0.3-9.8-1.8-10.1
			C239.9,108.6,238.2,111.9,237.1,118.8z"/>
		<path id="XMLID_368_" class="st2" d="M253,134c-0.9-9-1.4-17.4-2-26.1c0.4-0.2,1-0.2,1.6-0.1c0.6,0.1,1.3,0.5,1.3,1.4
			c0.4,7.3,0.7,14.2,1.3,21c2.2-6.1,6.3-16.1,7.7-20.7c0.3-0.1,0.7-0.1,1.2,0c0.8,0.1,1.2,0.8,1.1,1.3c-0.1,0.3-0.1,0.6-0.3,1
			c-2.8,7.9-6.9,15.9-9.2,23.4c-0.5,0.2-1,0.2-1.5,0.1C253.7,135.3,253,134.9,253,134z"/>
		<path id="XMLID_370_" class="st2" d="M267.7,125.5c-0.8,6.2,0,9.4,2.6,9.9c1.4,0.2,2.5-0.7,2.9-1.7c0.2-0.1,0.6-0.2,1-0.1
			c0.6,0.1,1,0.5,0.9,1.3c-0.1,0.7-0.4,1.2-1,1.7c-0.9,0.7-2.1,1.4-4.4,1.1c-4.8-0.8-5.5-6.7-4.2-14.8c1.3-8.3,4.3-12.6,7.9-12
			c3.4,0.5,4.5,5.1,3.2,13.5c-0.1,0.7-0.4,1.8-0.7,2.3C273.4,126.4,270.3,125.8,267.7,125.5z M268,123.3c2,0.3,4.2,0.6,6.1,0.8
			c1-6.6,0.4-10.2-1.3-10.5C271,113.3,269.2,115.9,268,123.3z"/>
	</g>
	<line id="XMLID_132_" class="st8" x1="157.1" y1="128.2" x2="251.9" y2="143"/>
	<g id="XMLID_158_" class="st1">
		<g id="XMLID_894_">
			<path id="XMLID_967_" class="st2" d="M134.9,152.3c0.1-0.3,0.2-0.5,0.4-0.7c0.4,0.1,0.8,0.2,1.3,0.2c0.6-4.3,2.2-5.6,4.2-5.3
				c0.9,0.1,1.5,0.4,1.9,0.9c0.3,0.3,0.4,0.6,0.3,0.8c-0.1,0.3-0.3,0.6-0.6,0.7c-0.3-0.3-0.8-0.8-1.7-0.9c-1.3-0.2-2,0.7-2.6,4
				c0.7,0.1,1.3,0.2,2,0.3c0.4,0.1,0.5,0.4,0.4,0.7c-0.1,0.4-0.2,0.5-0.4,0.7c-0.7-0.1-1.5-0.2-2.2-0.4c-0.6,4.1-1.4,9.3-1.8,13
				c-0.2,0.1-0.5,0.2-0.9,0.1c-0.3-0.1-0.6-0.3-0.6-0.8c0.7-4.1,1.3-8.3,1.8-12.5c-0.3,0-0.6-0.1-0.8-0.1
				C135,153,134.8,152.7,134.9,152.3z"/>
			<path id="XMLID_964_" class="st2" d="M144.5,165.5c-0.7,1.3-1.8,2.2-2.9,2c-1.3-0.2-2.1-1.5-1.7-4.5c0.5-2.9,2.2-4.3,5.4-3.9
				c0.1-0.9,0.3-1.7,0.3-2c0.2-1.6-0.2-2.7-1.4-2.9c-0.8-0.1-1.4,0.3-1.8,1.3c-0.7,0.1-1.2-0.3-1-1c0.1-0.6,0.5-1,0.8-1.2
				c0.5-0.4,1.4-0.6,2.2-0.5c2,0.3,3.1,1.7,2.7,4.1c-0.3,1.7-1.5,9.7-1.6,10.9c-0.2,0.1-0.4,0.1-0.8,0.1c-0.4-0.1-0.7-0.3-0.6-0.8
				C144.1,167.2,144.3,166.3,144.5,165.5z M145.1,160.4c-2.4-0.2-3.5,0.6-3.9,2.9c-0.3,1.7,0.1,2.8,1,2.9c1.1,0.2,2.3-1.2,2.6-3.2
				C144.8,162.1,145,161.2,145.1,160.4z"/>
			<path id="XMLID_962_" class="st2" d="M154,169.3c-0.3,0.1-0.5,0.1-0.8,0.1c-0.4-0.1-0.6-0.4-0.6-0.8c0.1-0.3,1.2-6.7,1.4-9.4
				c0.2-2,0-2.8-0.6-2.9c-1-0.1-2.5,2.1-2.9,4.6c-0.4,2.5-0.8,5.2-1.1,7.7c-0.2,0.1-0.4,0.2-0.8,0.1c-0.4-0.1-0.7-0.3-0.6-0.8
				c0.7-4.5,1.5-9.3,2-13.8c0.2-0.2,0.4-0.3,0.7-0.2c0.4,0.1,0.8,0.3,0.6,0.9c-0.2,0.9-0.4,2-0.6,3.1c0.8-2.2,2.2-3.6,3.2-3.4
				c1.1,0.2,1.5,1.3,1.5,3.5c1-2,2.2-2.9,3.2-2.7c1.3,0.2,1.7,1.7,1.3,4.7c-0.5,3.2-1.1,6.7-1.4,9.9c-0.2,0.2-0.5,0.4-0.9,0.3
				c-0.5-0.1-0.7-0.4-0.6-0.9c0.5-3.1,1-6,1.4-9c0.3-2,0-3-0.7-3c-1.1-0.1-2.2,1.5-2.6,3.8C154.8,163.5,154.3,166.9,154,169.3z"/>
			<path id="XMLID_959_" class="st2" d="M161,169.9c0.9-4.4,1.6-10.1,2.3-13.8c0.2-0.1,0.4-0.1,0.7-0.1c0.4,0.1,0.7,0.3,0.6,0.7
				c-0.8,4-1.6,9.7-2.2,13.9c-0.2,0.1-0.3,0.1-0.7,0.1C161.4,170.6,160.9,170.4,161,169.9z M163.8,153.3c0.1-0.7,0.2-1.3,0.3-2.1
				c0.2-0.1,0.5-0.1,0.8-0.1c0.3,0.1,0.7,0.3,0.6,0.7c-0.1,0.7-0.3,1.5-0.4,2.2c-0.2,0.1-0.5,0.1-0.8,0.1
				C163.9,154,163.7,153.8,163.8,153.3z"/>
			<path id="XMLID_957_" class="st2" d="M165.7,167.4c0.8-5.5,1.6-10,2.5-16.2c0.2-0.2,0.4-0.2,0.8-0.2c0.5,0.1,0.7,0.5,0.6,1
				c-0.9,5.7-1.8,10.5-2.5,15.3c-0.2,1.5,0.2,2.7,1.4,2.9c0.4,0.1,0.7,0,1.1-0.1c0.2,0.2,0.2,0.5,0.2,0.9c-0.1,0.6-0.9,0.8-1.6,0.7
				C166.2,171.4,165.4,169.8,165.7,167.4z"/>
			<path id="XMLID_955_" class="st2" d="M169.9,176.6c0.1-0.4,0.4-0.8,0.7-1.1c0.9-1,1.7-2.1,2.4-3.3c-0.2-0.1-0.2-0.2-0.3-0.5
				c-0.5-3.2-0.6-10.3-1.1-14.2c0.2-0.1,0.6-0.2,0.9-0.1c0.5,0.1,0.7,0.3,0.8,0.6c0.4,3.6,0.2,9,0.7,12.5c2.1-3.9,3.5-8.4,4.2-12.1
				c0.2-0.1,0.5-0.1,0.8,0c0.5,0.1,0.7,0.4,0.6,0.6c0,0.3-0.1,0.7-0.2,1.1c-0.7,2.7-1.6,5.6-3,8.5c-1.4,3-3.7,6.7-5.1,8.8
				c-0.2,0.1-0.5,0.1-0.8,0C170,177.4,169.8,177,169.9,176.6z"/>
			<path id="XMLID_952_" class="st2" d="M190.5,173.2c-0.7,1.1-1.5,1.7-2.4,1.6c-1.2-0.2-2.5-2-1.6-7.4c0.9-5.5,2.1-7.5,4-7.2
				c1,0.2,1.5,1.1,1.7,2.3c0.4-2.8,0.7-5.5,1-7.5c0.2-0.1,0.6-0.1,0.9-0.1c0.4,0.1,0.7,0.4,0.6,0.8c-1,6.1-2.4,14.8-2.9,19.4
				c-0.3,0.2-0.5,0.2-0.9,0.2c-0.4-0.1-0.8-0.3-0.7-0.7C190.2,174.3,190.3,173.8,190.5,173.2z M191.9,164c-0.3-1.1-0.8-2.2-1.5-2.3
				c-1.1-0.2-1.9,1.7-2.4,5.4c-0.7,4.3,0,6,0.9,6.1c0.6,0.1,1.6-0.7,2-2.3C191.2,168.7,191.6,166.3,191.9,164z"/>
			<path id="XMLID_949_" class="st2" d="M194.9,168.3c0.7-4.9,2.4-7.1,4.6-6.7c1.9,0.4,2.8,3,2.1,7.3c-0.9,5.8-2.8,7.6-4.4,7.3
				C195.1,175.9,194.1,173.4,194.9,168.3z M196.3,168.5c-0.6,3.8-0.3,6.1,1,6.3c1,0.2,2.2-2,2.8-6.1c0.5-3.3,0.2-5.4-1-5.6
				C197.9,162.9,196.9,164.7,196.3,168.5z"/>
			<path id="XMLID_945_" class="st2" d="M205.1,171.6c-0.2,0.3-0.3,0.6-0.4,1c-0.1,0.7,0.4,1.5,1.1,2.1c2.3,2.2,2.9,3.3,2.6,5.2
				c-0.3,2-2.1,3.1-4,2.8c-2.1-0.3-3.2-1.9-2.8-4.4c0.3-1.7,1.2-3,2.1-3.7c-0.3-0.5-0.5-1.1-0.4-1.9c0.1-0.8,0.5-1.5,1-1.9
				c-0.7-1-0.8-2.7-0.5-4.7c0.4-2.6,1.6-3.7,3.5-3.4c0.4,0.1,0.8,0.2,1.1,0.3c0.3-1.6,1.1-2.2,2-2c0.5,0.1,0.9,0.4,0.8,0.9
				c0,0.3-0.2,0.5-0.4,0.6c-0.1-0.1-0.4-0.2-0.6-0.2c-0.5-0.1-0.7,0.2-1,1.4c0.6,0.7,0.8,1.7,0.6,3.1c-0.5,3.3-2.3,5.2-4.1,4.9
				C205.6,171.8,205.4,171.7,205.1,171.6z M204.5,175.5c-0.6,0.5-1.1,1.5-1.4,3c-0.2,1.5,0.3,2.8,1.6,3c1.2,0.2,2.1-0.5,2.3-1.7
				C207.2,178.2,206.5,177.5,204.5,175.5z M205.2,166.4c-0.3,2.1-0.1,3.9,0.8,4.1c1,0.1,2-1.4,2.4-3.7c0.3-1.6-0.2-2.5-1.3-2.7
				C206.3,164,205.5,164.7,205.2,166.4z"/>
			<path id="XMLID_943_" class="st2" d="M223.3,180.1c-0.3,0.1-0.5,0.1-0.8,0.1c-0.4-0.1-0.6-0.4-0.6-0.8c0.1-0.3,1.2-6.7,1.4-9.4
				c0.2-2,0-2.8-0.6-2.9c-1-0.1-2.5,2.1-2.9,4.6c-0.4,2.5-0.8,5.2-1.1,7.7c-0.2,0.1-0.4,0.2-0.8,0.1c-0.4-0.1-0.7-0.3-0.6-0.8
				c0.7-4.5,1.5-9.3,2-13.8c0.2-0.2,0.4-0.3,0.7-0.2c0.4,0.1,0.8,0.3,0.6,0.9c-0.2,0.9-0.4,2-0.6,3.1c0.8-2.2,2.2-3.6,3.2-3.4
				c1.1,0.2,1.5,1.3,1.5,3.5c1-2,2.2-2.9,3.2-2.7c1.3,0.2,1.7,1.7,1.3,4.7c-0.5,3.2-1.1,6.7-1.4,9.9c-0.2,0.2-0.5,0.4-0.9,0.3
				c-0.5-0.1-0.7-0.4-0.6-0.9c0.5-3.1,1-6,1.4-9c0.3-2,0-3-0.7-3c-1.1-0.1-2.2,1.5-2.6,3.8C224.1,174.3,223.6,177.7,223.3,180.1z"/>
			<path id="XMLID_940_" class="st2" d="M231,173.9c0.7-4.9,2.4-7.1,4.6-6.7c1.9,0.4,2.8,3,2.1,7.3c-0.9,5.8-2.8,7.6-4.4,7.3
				C231.3,181.6,230.2,179,231,173.9z M232.4,174.2c-0.6,3.8-0.3,6.1,1,6.3c1,0.2,2.2-2,2.8-6.1c0.5-3.3,0.2-5.4-1-5.6
				C234,168.6,233,170.4,232.4,174.2z"/>
			<path id="XMLID_938_" class="st2" d="M241.1,182.5c-0.5-4.9-0.8-9.5-1.1-14.4c0.2-0.1,0.6-0.1,0.9-0.1c0.3,0.1,0.7,0.3,0.7,0.8
				c0.2,4,0.4,7.8,0.7,11.6c1.2-3.3,3.4-8.8,4.2-11.3c0.1,0,0.4-0.1,0.7,0c0.4,0.1,0.7,0.4,0.6,0.7c0,0.2-0.1,0.3-0.1,0.6
				c-1.5,4.3-3.8,8.8-5,12.8c-0.3,0.1-0.5,0.1-0.8,0.1C241.5,183.2,241.2,183,241.1,182.5z"/>
			<path id="XMLID_935_" class="st2" d="M247.6,183.4c0.9-4.4,1.6-10.1,2.3-13.8c0.2-0.1,0.4-0.1,0.7-0.1c0.4,0.1,0.7,0.3,0.6,0.7
				c-0.8,4-1.6,9.7-2.2,13.9c-0.2,0.1-0.3,0.1-0.7,0.1C247.9,184.2,247.5,183.9,247.6,183.4z M250.4,166.9c0.1-0.7,0.2-1.3,0.3-2.1
				c0.2-0.1,0.5-0.1,0.8-0.1c0.3,0.1,0.7,0.3,0.6,0.7c-0.1,0.7-0.3,1.5-0.4,2.2c-0.2,0.1-0.5,0.1-0.8,0.1
				C250.5,167.6,250.3,167.3,250.4,166.9z"/>
			<path id="XMLID_932_" class="st2" d="M253.6,178.5c-0.4,3.4,0,5.2,1.4,5.4c0.8,0.1,1.4-0.4,1.6-0.9c0.1-0.1,0.3-0.1,0.5-0.1
				c0.3,0,0.5,0.3,0.5,0.7c-0.1,0.4-0.2,0.7-0.6,1c-0.5,0.4-1.2,0.8-2.4,0.6c-2.7-0.4-3-3.7-2.3-8.1c0.7-4.5,2.4-6.9,4.3-6.6
				c1.9,0.3,2.5,2.8,1.7,7.4c-0.1,0.4-0.2,1-0.4,1.3C256.8,179,255.1,178.7,253.6,178.5z M253.8,177.3c1.1,0.1,2.3,0.3,3.3,0.4
				c0.6-3.6,0.2-5.6-0.7-5.8C255.5,171.8,254.5,173.3,253.8,177.3z"/>
			<path id="XMLID_930_" class="st2" d="M259.5,185.2c-0.2-0.2-0.3-0.6-0.3-0.9c0.1-0.4,0.4-0.7,0.8-0.6c0.3,0.3,0.8,1.1,1.8,1.3
				c1.1,0.2,1.9-0.6,2.1-1.7c0.4-2.3-3.5-4.9-3-8.1c0.4-2.3,1.8-3.5,3.6-3.2c0.7,0.1,1.4,0.4,1.8,0.9c0.2,0.3,0.4,0.6,0.3,1
				c-0.1,0.4-0.5,0.7-0.9,0.6c-0.2-0.4-0.7-1.1-1.6-1.2c-0.9-0.1-1.6,0.7-1.8,1.8c-0.5,2.9,3.5,5.2,3,8.3c-0.3,2.1-2,3.3-3.8,3
				C260.6,186.2,259.9,185.7,259.5,185.2z"/>
			<path id="XMLID_928_" class="st2" d="M134.5,200.3c-0.3,0.1-0.5,0.1-0.8,0.1c-0.4-0.1-0.6-0.4-0.6-0.8c0.1-0.3,1.2-6.7,1.4-9.4
				c0.2-2,0-2.8-0.6-2.9c-1-0.1-2.5,2.1-2.9,4.6c-0.4,2.5-0.8,5.2-1.1,7.7c-0.2,0.1-0.4,0.2-0.8,0.1c-0.4-0.1-0.7-0.3-0.6-0.8
				c0.7-4.5,1.5-9.3,2-13.8c0.2-0.2,0.4-0.3,0.7-0.2c0.4,0.1,0.8,0.3,0.6,0.9c-0.2,0.9-0.4,2-0.6,3.1c0.8-2.2,2.2-3.6,3.2-3.4
				c1.1,0.2,1.5,1.3,1.5,3.5c1-2,2.2-2.9,3.2-2.7c1.3,0.2,1.7,1.7,1.3,4.7c-0.5,3.2-1.1,6.7-1.4,9.9c-0.2,0.2-0.5,0.4-0.9,0.3
				c-0.5-0.1-0.7-0.4-0.6-0.9c0.5-3.1,1-6,1.4-9c0.3-2,0-3-0.7-3c-1.1-0.1-2.2,1.5-2.6,3.8C135.3,194.5,134.8,197.8,134.5,200.3z"/>
			<path id="XMLID_926_" class="st2" d="M146.7,199.2c-1,1.9-2.1,2.7-3.2,2.6c-1.3-0.2-2-1.6-1.5-4.5c0.5-3.3,1.2-7.2,1.5-10.4
				c0.2-0.1,0.4-0.1,0.8,0c0.3,0.1,0.7,0.3,0.7,0.7c-0.4,3.2-1,5.6-1.5,9.4c-0.3,2,0,2.9,0.8,3.1c0.7,0.1,2.3-0.7,2.8-4.1
				c0.4-2.7,0.8-5.5,1.1-8.2c0.2-0.1,0.5-0.1,0.8,0c0.3,0.1,0.7,0.2,0.6,0.8c-0.5,3.5-1.5,10.1-1.9,13.9c-0.3,0.1-0.5,0.2-0.9,0.1
				c-0.4-0.1-0.6-0.3-0.6-0.7L146.7,199.2z"/>
			<path id="XMLID_924_" class="st2" d="M150.1,202.1c-0.2-0.2-0.3-0.6-0.3-0.9c0.1-0.4,0.4-0.7,0.8-0.6c0.3,0.3,0.8,1.1,1.8,1.3
				c1.1,0.2,1.9-0.6,2.1-1.7c0.4-2.3-3.5-4.9-3-8.1c0.4-2.3,1.8-3.5,3.6-3.2c0.7,0.1,1.4,0.4,1.8,0.9c0.2,0.3,0.4,0.6,0.3,1
				c-0.1,0.4-0.5,0.7-0.9,0.6c-0.2-0.4-0.7-1.1-1.6-1.2c-0.9-0.1-1.6,0.7-1.8,1.8c-0.5,2.9,3.5,5.2,3,8.3c-0.3,2.1-2,3.3-3.8,3
				C151.2,203.1,150.6,202.6,150.1,202.1z"/>
			<path id="XMLID_921_" class="st2" d="M157.5,203.3c0.9-4.4,1.6-10.1,2.3-13.8c0.2-0.1,0.4-0.1,0.7-0.1c0.4,0.1,0.7,0.3,0.6,0.7
				c-0.8,4-1.6,9.7-2.2,13.9c-0.2,0.1-0.3,0.1-0.7,0.1C157.9,204.1,157.4,203.8,157.5,203.3z M160.4,186.8c0.1-0.7,0.2-1.3,0.3-2.1
				c0.2-0.1,0.5-0.1,0.8-0.1c0.3,0.1,0.7,0.3,0.6,0.7c-0.1,0.7-0.3,1.5-0.4,2.2c-0.2,0.1-0.5,0.1-0.8,0.1
				C160.5,187.5,160.3,187.2,160.4,186.8z"/>
			<path id="XMLID_919_" class="st2" d="M162.4,196.8c0.7-4.6,2.3-6.7,4.4-6.3c0.7,0.1,1.5,0.5,1.4,1.1c-0.1,0.4-0.4,0.7-0.6,0.7
				c-0.3-0.2-0.6-0.3-1-0.4c-1.4-0.2-2.2,1.4-2.8,5.3c-0.6,4-0.2,6.3,1.2,6.6c0.5,0.1,0.8,0,1.2-0.1c0.3,0.1,0.4,0.4,0.3,0.8
				c-0.1,0.6-1,0.9-1.8,0.8C162.3,204.8,161.7,201.6,162.4,196.8z"/>
			<path id="XMLID_916_" class="st2" d="M179.5,205.5c-0.7,1.1-1.5,1.7-2.4,1.6c-1.2-0.2-2.5-2-1.6-7.4c0.9-5.5,2.1-7.5,4-7.2
				c1,0.2,1.5,1.1,1.7,2.3c0.4-2.8,0.7-5.5,1-7.5c0.2-0.1,0.6-0.1,0.9-0.1c0.4,0.1,0.7,0.4,0.6,0.8c-1,6.1-2.4,14.8-2.9,19.4
				c-0.3,0.2-0.5,0.2-0.9,0.2c-0.4-0.1-0.8-0.3-0.7-0.7C179.2,206.6,179.4,206,179.5,205.5z M180.9,196.3c-0.3-1.1-0.8-2.2-1.5-2.3
				c-1.1-0.2-1.9,1.7-2.4,5.4c-0.7,4.3,0,6,0.9,6.1c0.6,0.1,1.6-0.7,2-2.3C180.2,201,180.6,198.6,180.9,196.3z"/>
			<path id="XMLID_914_" class="st2" d="M184.9,208.1c-0.2,0.1-0.6,0.1-1,0.1c-0.5-0.1-0.7-0.3-0.6-0.9c0.7-4.5,1.5-9,2.1-13.7
				c0.2-0.1,0.4-0.2,0.8-0.1c0.5,0.1,0.8,0.4,0.7,1c-0.2,1.1-0.5,2.3-0.7,3.4c0.9-2,2.4-4,3.9-3.7c1.3,0.2,1.6,1.4,1.3,3.3
				c-0.1,0.4-0.4,0.7-0.9,0.7c-0.3-0.1-0.6-0.2-0.7-0.5c0.2-1.3,0-1.7-0.5-1.7c-1.2-0.2-3,2.5-3.4,4.6
				C185.4,202.8,185.1,205.9,184.9,208.1z"/>
			<path id="XMLID_911_" class="st2" d="M195.7,207.5c-0.7,1.3-1.8,2.2-2.9,2c-1.3-0.2-2.1-1.5-1.7-4.5c0.5-2.9,2.2-4.3,5.4-3.9
				c0.1-0.9,0.3-1.7,0.3-2c0.2-1.6-0.2-2.7-1.4-2.9c-0.8-0.1-1.4,0.3-1.8,1.3c-0.7,0.1-1.2-0.3-1-1c0.1-0.6,0.5-1,0.8-1.2
				c0.5-0.4,1.4-0.6,2.2-0.5c2,0.3,3.1,1.8,2.7,4.1c-0.3,1.7-1.5,9.7-1.6,10.9c-0.2,0.1-0.4,0.1-0.8,0.1c-0.4-0.1-0.7-0.3-0.6-0.8
				C195.4,209.2,195.5,208.4,195.7,207.5z M196.4,202.4c-2.4-0.2-3.5,0.6-3.9,2.9c-0.3,1.7,0.1,2.8,1,2.9c1.1,0.2,2.3-1.2,2.6-3.2
				C196.1,204.2,196.2,203.3,196.4,202.4z"/>
			<path id="XMLID_909_" class="st2" d="M200,209.8c0.3-5.2,0.5-9.2,0.9-13.8c0.1-0.1,0.5-0.1,0.8-0.1c0.5,0.1,0.8,0.4,0.7,0.7
				c-0.3,3.6-0.8,7.2-1,10.7c0.8-1.7,2-4.3,2.8-6c0.1-0.1,0.3-0.1,0.5,0c0.3,0.1,0.5,0.2,0.6,0.5c0.2,1.8,0.7,4.6,1.1,6.3
				c0.8-3.5,1.3-7.4,2-11c0.2-0.1,0.5-0.1,0.8-0.1c0.4,0.1,0.7,0.3,0.7,0.6c0,0.1-0.1,0.4-0.2,0.9c-0.8,4.2-1.9,8.3-2.6,12.9
				c-0.2,0.1-0.5,0.1-0.8,0.1c-0.3-0.1-0.7-0.3-0.7-0.6c-0.3-2.2-0.8-5.2-1.1-7.4c-0.9,2-2.5,5.5-3.1,7.1c-0.2,0-0.5,0-0.7,0
				C200.2,210.7,200,210.4,200,209.8z"/>
			<path id="XMLID_907_" class="st2" d="M221.1,200.5c-0.5,3.1-1.2,6.3-1.6,9.1c-0.2,1.7,0.1,2.6,1,2.7c0.4,0.1,0.9,0,1.3-0.1
				c0.1,0.2,0.2,0.5,0.2,0.9c-0.1,0.6-0.9,0.9-1.8,0.8c-1.8-0.3-2.5-1.9-2.1-4.5c0.5-3,1-6.1,1.5-9.2c-0.4-0.1-0.9-0.1-1.2-0.2
				c-0.4-0.1-0.6-0.3-0.6-0.8c0.1-0.4,0.3-0.7,0.4-0.7c0.5,0.1,1,0.2,1.6,0.3c0.2-1.4,0.4-2.8,0.6-4.1c0.2-0.1,0.4-0.1,0.8-0.1
				c0.5,0.1,0.6,0.3,0.6,0.7c-0.1,1.2-0.3,2.4-0.5,3.7c0.7,0.1,1.5,0.2,2.2,0.3c0.5,0,0.6,0.4,0.6,0.8c-0.1,0.4-0.2,0.6-0.3,0.7
				C222.9,200.7,222,200.6,221.1,200.5z"/>
			<path id="XMLID_905_" class="st2" d="M225,214.4c-0.2,0.1-0.6,0.1-1,0.1c-0.5-0.1-0.7-0.3-0.6-0.9c0.7-4.5,1.5-9,2.1-13.7
				c0.2-0.1,0.4-0.2,0.8-0.1c0.5,0.1,0.8,0.4,0.7,1c-0.2,1.1-0.5,2.3-0.7,3.4c0.9-2,2.4-4,3.9-3.7c1.3,0.2,1.6,1.4,1.3,3.3
				c-0.1,0.4-0.4,0.7-0.9,0.7c-0.3-0.1-0.6-0.2-0.7-0.5c0.2-1.3,0-1.7-0.5-1.7c-1.2-0.2-3,2.5-3.4,4.6
				C225.6,209.1,225.2,212.2,225,214.4z"/>
			<path id="XMLID_902_" class="st2" d="M235.9,213.8c-0.7,1.3-1.8,2.2-2.9,2c-1.3-0.2-2.1-1.5-1.7-4.5c0.5-2.9,2.2-4.3,5.4-3.9
				c0.1-0.9,0.3-1.7,0.3-2c0.2-1.6-0.2-2.7-1.4-2.9c-0.8-0.1-1.4,0.3-1.8,1.3c-0.7,0.1-1.2-0.3-1-1c0.1-0.6,0.5-1,0.8-1.2
				c0.5-0.4,1.4-0.6,2.2-0.5c2,0.3,3.1,1.8,2.7,4.1c-0.3,1.7-1.5,9.7-1.6,10.9c-0.2,0.1-0.4,0.1-0.8,0.1c-0.4-0.1-0.7-0.3-0.6-0.8
				C235.6,215.5,235.7,214.6,235.9,213.8z M236.5,208.7c-2.4-0.2-3.5,0.6-3.9,2.9c-0.3,1.7,0.1,2.8,1,2.9c1.1,0.2,2.3-1.2,2.6-3.2
				C236.3,210.4,236.4,209.5,236.5,208.7z"/>
			<path id="XMLID_900_" class="st2" d="M241.8,216.6c-0.5-4.9-0.8-9.5-1.1-14.4c0.2-0.1,0.6-0.1,0.9-0.1c0.3,0.1,0.7,0.3,0.7,0.8
				c0.2,4,0.4,7.8,0.7,11.6c1.2-3.3,3.4-8.8,4.2-11.3c0.1,0,0.4-0.1,0.7,0c0.4,0.1,0.7,0.4,0.6,0.7c0,0.2-0.1,0.3-0.1,0.6
				c-1.5,4.3-3.8,8.8-5,12.9c-0.3,0.1-0.5,0.1-0.8,0.1C242.2,217.3,241.8,217.1,241.8,216.6z"/>
			<path id="XMLID_897_" class="st2" d="M249.9,212c-0.4,3.4,0,5.2,1.4,5.4c0.8,0.1,1.4-0.4,1.6-0.9c0.1-0.1,0.3-0.1,0.5-0.1
				c0.3,0,0.5,0.3,0.5,0.7c-0.1,0.4-0.2,0.7-0.6,1c-0.5,0.4-1.2,0.8-2.4,0.6c-2.7-0.4-3-3.7-2.3-8.1c0.7-4.5,2.4-6.9,4.3-6.6
				c1.9,0.3,2.5,2.8,1.7,7.4c-0.1,0.4-0.2,1-0.4,1.3C253,212.4,251.3,212.1,249.9,212z M250,210.7c1.1,0.1,2.3,0.3,3.3,0.4
				c0.6-3.6,0.2-5.6-0.7-5.8C251.7,205.3,250.7,206.7,250,210.7z"/>
			<path id="XMLID_895_" class="st2" d="M256.4,215.6c0.8-5.5,1.6-10,2.5-16.2c0.2-0.2,0.4-0.2,0.8-0.2c0.5,0.1,0.7,0.5,0.6,1
				c-0.9,5.7-1.8,10.5-2.5,15.3c-0.2,1.5,0.2,2.7,1.4,2.9c0.4,0.1,0.7,0,1.1-0.1c0.2,0.2,0.2,0.5,0.2,0.9c-0.1,0.6-0.9,0.8-1.6,0.7
				C256.9,219.6,256,218,256.4,215.6z"/>
		</g>
	</g>
	<path id="XMLID_89_" class="st9" d="M326.9,92.7c0,0-11.4-30.6-26.1-10.4c-14.7,20.2,26.8,42.9,26.8,42.9S364,99.6,358,87.7
		S326.9,92.7,326.9,92.7z"/>
	<path id="XMLID_58_" class="st10" d="M291.8,83.4c0,0-6.6-17.5-15-5.9c-8.4,11.6,15.4,24.6,15.4,24.6s20.9-14.7,17.5-21.6
		C306.2,73.7,291.8,83.4,291.8,83.4z"/>
</g>
<path id="XMLID_404_" class="st11" d="M334.6,244.3L88.2,256.7c-5.3,0.3-9.8-3.8-10.1-9.1L68.3,54.1c-0.3-5.3,3.8-9.8,9.1-10.1
	l246.5-12.4c5.3-0.3,9.8,3.8,10.1,9.1l9.8,193.5C344,239.5,339.9,244,334.6,244.3z"/>
<g id="XMLID_576_">
	<path id="XMLID_577_" class="st2" d="M150.6,93.1c-1.4-9.3-2.4-16.6-3.5-24.9c0.2-0.3,0.8-0.4,1.5-0.5c0.9,0,1.5,0.5,1.6,1
		c0.8,6.5,1.2,13.1,2.1,19.4c0.8-3.3,1.9-8.3,2.7-11.7c0.2-0.1,0.4-0.2,1-0.3c0.6,0,1,0.2,1.2,0.7c1.1,3.1,2.9,7.9,4.3,10.9
		c0-6.6-0.4-13.7-0.6-20.3c0.3-0.2,0.8-0.4,1.4-0.4c0.8,0,1.3,0.3,1.4,0.9c0,0.3,0,0.7,0,1.7c0.1,7.8-0.2,15.6,0.1,23.9
		c-0.4,0.2-0.8,0.4-1.4,0.4c-0.6,0-1.3-0.2-1.5-0.9c-1.4-3.8-3.3-8.9-4.7-12.7c-0.8,3.9-2.5,10.7-2.8,13.9c-0.4,0.1-0.8,0.2-1.3,0.2
		C151.1,94.6,150.7,94.2,150.6,93.1z"/>
	<path id="XMLID_579_" class="st2" d="M170.7,72.3c0.6-3.1,2-5.8,4.9-6c2.2-0.1,3.6,2.1,3.8,7.1c0.3,6.1,0.8,13.8,1.3,19.5
		c-0.2,0.2-0.8,0.3-1.4,0.4c-0.8,0-1.2-0.4-1.3-1.2c-0.5-6.8-0.7-13.6-1-17.8c-0.2-3.1-0.9-4.7-2.2-4.7c-3,0.2-3.6,6-3.6,8.1
		c0.1,3.5,0.4,10,0.9,15.5c-0.3,0.2-0.6,0.4-1.4,0.5c-0.9,0-1.3-0.6-1.3-1.4c-0.5-12.5-1.2-25.6-2.1-35.3c0.3-0.3,0.7-0.6,1.5-0.7
		c0.9,0,1.5,0.7,1.6,2.2C170.5,63.2,170.4,67.5,170.7,72.3z"/>
	<path id="XMLID_581_" class="st2" d="M192.9,88.1c-0.7,2.5-2.3,4.5-4.4,4.6c-2.4,0.1-4.4-1.9-4.6-7.3c-0.3-5.4,2.4-8.5,8.2-8.9
		c-0.1-1.7-0.1-3.1-0.2-3.6c-0.1-2.9-1.3-4.7-3.5-4.6c-1.6,0.1-2.4,1-2.7,3c-1.3,0.5-2.2-0.1-2.2-1.4c-0.1-1.1,0.4-1.9,1-2.5
		c0.7-0.9,2.2-1.6,3.7-1.7c3.8-0.2,6.2,2,6.3,6.3c0.1,3.1,0.9,17.8,1.2,20c-0.3,0.2-0.6,0.4-1.3,0.4c-0.8,0-1.3-0.3-1.4-1.2
		C192.9,91.1,192.9,89.6,192.9,88.1z M192.2,78.7c-4.4,0.5-6.1,2.4-5.9,6.6c0.2,3.1,1.2,4.9,2.8,4.8c2-0.1,3.6-3,3.4-6.7
		C192.3,81.9,192.2,80.3,192.2,78.7z"/>
	<path id="XMLID_584_" class="st2" d="M203,67.7c0.2,5.7,0.2,11.6,0.6,16.9c0.2,3.1,1.1,4.5,2.7,4.5c0.8,0,1.6-0.3,2.3-0.7
		c0.3,0.3,0.6,0.9,0.6,1.6c0.1,1.2-1.2,2-2.9,2.1c-3.4,0.2-5.1-2.5-5.4-7.2c-0.3-5.5-0.4-11.3-0.7-16.9c-0.8,0.1-1.6,0.1-2.3,0.1
		c-0.8,0-1.2-0.4-1.3-1.2c0-0.7,0.3-1.3,0.5-1.4c0.9,0,1.9,0,3-0.1c-0.1-2.6-0.3-5.1-0.5-7.5c0.3-0.2,0.7-0.4,1.4-0.4
		c0.9,0,1.2,0.3,1.3,1.1c0.2,2.1,0.4,4.4,0.4,6.7c1.4-0.1,2.7-0.2,3.9-0.3c0.8-0.1,1.2,0.4,1.3,1.2c0,0.7-0.2,1.1-0.3,1.4
		C206.4,67.5,204.7,67.6,203,67.7z"/>
	<path id="XMLID_586_" class="st2" d="M218.7,89.8c-0.3-6.1-0.6-11.7-0.9-17.5c-0.3-5.3-0.6-11.2-1.1-15.5c0.4-0.2,1-0.4,1.5-0.4
		c0.9,0,1.4,0.4,1.5,1.7c0.2,3.9,0.4,9.1,0.7,14.3c0.3,6.2,0.9,12.7,1.2,18.4c-0.4,0.2-0.9,0.4-1.4,0.4
		C219.3,91.3,218.7,90.8,218.7,89.8z"/>
	<path id="XMLID_588_" class="st2" d="M240.5,86.5c-0.8,2.2-2.1,3.7-3.7,3.7c-2.2,0.1-5.1-2.7-5.6-12.6c-0.5-10.1,0.9-14.1,4.4-14.2
		c1.9-0.1,3,1.5,3.9,3.5c-0.3-5.2-0.7-10-1-13.7c0.4-0.2,0.9-0.5,1.7-0.5c0.8,0,1.3,0.5,1.4,1.3c0.5,11.2,1.3,27.3,2.1,35.6
		c-0.4,0.4-0.9,0.6-1.5,0.6c-0.7,0-1.5-0.2-1.5-0.9C240.4,88.7,240.4,87.6,240.5,86.5z M239.6,69.6c-0.9-1.9-2.3-3.6-3.6-3.5
		c-2,0.1-2.7,3.7-2.3,10.6c0.4,7.9,2.2,10.6,3.8,10.6c1.2-0.1,2.7-1.8,2.6-4.9C240.1,78.3,239.9,73.9,239.6,69.6z"/>
	<path id="XMLID_591_" class="st2" d="M246.5,76.2c-0.5-8.9,1.6-13.5,5.7-13.6c3.5-0.1,6,4.4,6.4,12.2c0.6,10.7-2.2,14.6-5.2,14.7
		C249.8,89.7,247,85.5,246.5,76.2z M249.2,76c0.4,7.1,1.8,10.9,4.1,10.9c1.9,0,3.2-4.3,2.7-12c-0.3-6-1.7-9.7-3.9-9.6
		C249.9,65.5,248.8,69.1,249.2,76z"/>
</g>
<line id="XMLID_400_" class="st11" x1="154.9" y1="102.5" x2="250.7" y2="97.7"/>
<g id="XMLID_379_">
	<g id="XMLID_1989_">
		<path id="XMLID_2176_" class="st2" d="M101.5,142.7c-0.8-5.1-1.3-9.1-1.9-13.7c0.1-0.1,0.5-0.2,0.8-0.3c0.5,0,0.8,0.3,0.9,0.6
			c0.5,3.6,0.6,7.2,1.2,10.6c0.4-1.8,1.1-4.6,1.5-6.4c0.1-0.1,0.2-0.1,0.5-0.1c0.3,0,0.6,0.1,0.7,0.4c0.6,1.7,1.6,4.3,2.4,6
			c0-3.6-0.2-7.5-0.3-11.2c0.1-0.1,0.4-0.2,0.8-0.2c0.4,0,0.7,0.2,0.8,0.5c0,0.1,0,0.4,0,0.9c0,4.3-0.1,8.5,0.1,13.2
			c-0.2,0.1-0.5,0.2-0.8,0.2c-0.3,0-0.7-0.1-0.8-0.5c-0.8-2.1-1.8-4.9-2.6-7c-0.5,2.1-1.4,5.9-1.6,7.6c-0.2,0.1-0.5,0.1-0.7,0.1
			C101.8,143.5,101.6,143.2,101.5,142.7z"/>
		<path id="XMLID_2173_" class="st2" d="M112.3,136.5c0.3,3.4,1.1,5.1,2.5,5c0.8,0,1.3-0.7,1.4-1.2c0.1-0.1,0.3-0.2,0.5-0.2
			c0.3,0,0.6,0.2,0.6,0.6c0,0.4-0.1,0.7-0.4,1.1c-0.4,0.5-1,1-2.2,1.1c-2.7,0.1-3.7-3-3.9-7.5c-0.2-4.6,0.9-7.3,2.9-7.4
			c1.9-0.1,3,2.2,3.2,6.9c0,0.4,0,1-0.1,1.3C115.4,136.4,113.7,136.4,112.3,136.5z M112.2,135.3c1.1-0.1,2.3-0.1,3.4-0.3
			c-0.2-3.7-0.9-5.5-1.8-5.5C112.7,129.6,112,131.2,112.2,135.3z"/>
		<path id="XMLID_2170_" class="st2" d="M120.4,129c0.4-0.8,1-1.5,1.9-1.5c2.2-0.1,3,4,3.2,7.4c0.2,4.9-1,7.5-3.3,7.6
			c-1,0-2-0.4-2.6-0.8c0.1-4-0.9-15.7-1-19.4c0.3-0.2,0.5-0.3,0.8-0.3c0.4,0,0.8,0.2,0.8,0.6C120.2,124.7,120.3,126.8,120.4,129z
			 M120.5,130.7c0.2,4,0.5,7.7,0.5,10.1c0.3,0.2,0.6,0.3,1.1,0.3c1.3-0.1,2.1-2.1,1.9-6c-0.1-2.6-0.7-6-1.9-6
			C121.4,129.1,120.9,129.7,120.5,130.7z"/>
		<path id="XMLID_2168_" class="st2" d="M127.7,141.4c-0.2-0.2-0.4-0.5-0.4-0.8c0-0.4,0.2-0.7,0.6-0.8c0.4,0.3,1,0.9,2,0.9
			c1.1-0.1,1.8-1,1.7-2.1c-0.1-2.4-4.4-4-4.6-7.4c-0.1-2.3,1-3.8,2.8-3.9c0.7,0,1.4,0.1,2,0.5c0.2,0.2,0.5,0.5,0.5,1
			c0,0.4-0.3,0.8-0.7,0.8c-0.3-0.3-0.9-0.9-1.8-0.9c-0.9,0-1.4,1-1.4,2.1c0.1,2.9,4.5,4.4,4.7,7.5c0.1,2.1-1.3,3.6-3.1,3.7
			C129,142.1,128.3,141.8,127.7,141.4z"/>
		<path id="XMLID_2165_" class="st2" d="M134.6,124.3c0-0.7-0.1-1.3-0.1-2.1c0.2-0.1,0.4-0.2,0.7-0.2c0.3,0,0.7,0.2,0.8,0.6
			c0,0.7,0,1.5,0.1,2.2c-0.2,0.1-0.5,0.2-0.8,0.3C134.9,125,134.6,124.8,134.6,124.3z M135.2,141.1c-0.1-4.5-0.5-10.2-0.6-14
			c0.1-0.1,0.3-0.2,0.7-0.2c0.4,0,0.8,0.2,0.8,0.6c0.1,4.1,0.4,9.8,0.6,14.1c-0.1,0.1-0.3,0.2-0.7,0.2
			C135.7,141.8,135.2,141.6,135.2,141.1z"/>
		<path id="XMLID_2163_" class="st2" d="M141.1,128.1c0.1,3.1,0.1,6.4,0.3,9.3c0.1,1.7,0.6,2.5,1.5,2.4c0.4,0,0.9-0.2,1.3-0.4
			c0.2,0.2,0.3,0.5,0.3,0.9c0,0.6-0.7,1.1-1.6,1.1c-1.8,0.1-2.8-1.4-2.9-3.9c-0.2-3-0.2-6.2-0.4-9.3c-0.4,0-0.9,0-1.3,0
			c-0.4,0-0.7-0.2-0.7-0.7c0-0.4,0.2-0.7,0.3-0.8c0.5,0,1.1,0,1.6,0c-0.1-1.4-0.2-2.8-0.3-4.1c0.2-0.1,0.4-0.2,0.8-0.2
			c0.5,0,0.7,0.2,0.7,0.6c0.1,1.2,0.2,2.4,0.2,3.7c0.8,0,1.5-0.1,2.2-0.2c0.5-0.1,0.7,0.2,0.7,0.6c0,0.4-0.1,0.6-0.1,0.8
			C143,128,142,128.1,141.1,128.1z"/>
		<path id="XMLID_2160_" class="st2" d="M146.5,134.8c0.3,3.4,1.1,5.1,2.5,5c0.8,0,1.3-0.7,1.4-1.2c0.1-0.1,0.3-0.2,0.5-0.2
			c0.3,0,0.6,0.2,0.6,0.6c0,0.4-0.1,0.7-0.4,1.1c-0.4,0.5-1,1-2.2,1.1c-2.7,0.1-3.7-3-3.9-7.5c-0.2-4.6,0.9-7.3,2.9-7.4
			c1.9-0.1,3,2.2,3.2,6.9c0,0.4,0,1-0.1,1.3C149.7,134.6,148,134.7,146.5,134.8z M146.4,133.6c1.1-0.1,2.3-0.1,3.4-0.3
			c-0.2-3.7-0.9-5.5-1.8-5.5C147,127.9,146.3,129.5,146.4,133.6z"/>
		<path id="XMLID_2157_" class="st2" d="M161.5,138.5c-0.4,1.2-1.1,2-2,2.1c-1.2,0.1-2.8-1.5-3.1-6.9c-0.3-5.5,0.5-7.7,2.4-7.8
			c1-0.1,1.7,0.8,2.2,1.9c-0.2-2.9-0.4-5.5-0.6-7.5c0.2-0.1,0.5-0.3,0.9-0.3c0.4,0,0.7,0.3,0.8,0.7c0.3,6.2,0.7,15,1.1,19.6
			c-0.2,0.2-0.5,0.3-0.8,0.3c-0.4,0-0.8-0.1-0.8-0.5C161.5,139.7,161.5,139.1,161.5,138.5z M161.1,129.2c-0.5-1.1-1.2-2-2-1.9
			c-1.1,0.1-1.5,2-1.3,5.8c0.2,4.3,1.2,5.8,2.1,5.8c0.6,0,1.5-1,1.5-2.7C161.3,134,161.2,131.6,161.1,129.2z"/>
		<path id="XMLID_2154_" class="st2" d="M166.3,133.8c0.3,3.4,1.1,5.1,2.5,5c0.8,0,1.3-0.7,1.4-1.2c0.1-0.1,0.3-0.2,0.5-0.2
			c0.3,0,0.6,0.2,0.6,0.6c0,0.4-0.1,0.7-0.4,1.1c-0.4,0.5-1,1-2.2,1.1c-2.7,0.1-3.7-3-3.9-7.5c-0.2-4.6,0.9-7.3,2.9-7.4
			c1.9-0.1,3,2.2,3.2,6.9c0,0.4,0,1-0.1,1.3C169.5,133.6,167.8,133.7,166.3,133.8z M166.3,132.6c1.1-0.1,2.3-0.1,3.4-0.3
			c-0.2-3.7-0.9-5.5-1.8-5.5C166.8,126.9,166.1,128.5,166.3,132.6z"/>
		<path id="XMLID_2152_" class="st2" d="M173.4,139.1c-0.2-0.2-0.4-0.5-0.4-0.8c0-0.4,0.2-0.7,0.6-0.8c0.4,0.3,1,0.9,2,0.9
			c1.1-0.1,1.8-1,1.7-2.1c-0.1-2.4-4.4-4-4.6-7.4c-0.1-2.3,1-3.8,2.8-3.9c0.7,0,1.4,0.1,2,0.5c0.2,0.2,0.5,0.5,0.5,1
			c0,0.4-0.3,0.8-0.7,0.8c-0.3-0.3-0.9-0.9-1.8-0.9c-0.9,0-1.4,1-1.4,2.1c0.1,2.9,4.5,4.4,4.7,7.5c0.1,2.1-1.3,3.6-3.1,3.7
			C174.7,139.8,173.9,139.5,173.4,139.1z"/>
		<path id="XMLID_2149_" class="st2" d="M180.3,122c0-0.7-0.1-1.3-0.1-2.1c0.2-0.1,0.4-0.2,0.7-0.2c0.3,0,0.7,0.2,0.8,0.6
			c0,0.7,0,1.5,0.1,2.2c-0.2,0.1-0.5,0.2-0.8,0.3C180.5,122.7,180.3,122.5,180.3,122z M180.9,138.8c-0.1-4.5-0.5-10.2-0.6-14
			c0.1-0.1,0.3-0.2,0.7-0.2c0.4,0,0.8,0.2,0.8,0.6c0.1,4.1,0.4,9.8,0.6,14.1c-0.1,0.1-0.3,0.2-0.7,0.2
			C181.4,139.5,180.9,139.3,180.9,138.8z"/>
		<path id="XMLID_2145_" class="st2" d="M186.6,133.4c-0.1,0.3-0.2,0.6-0.2,1.1c0,0.7,0.7,1.4,1.5,1.9c2.7,1.7,3.5,2.6,3.6,4.6
			c0.1,2-1.5,3.4-3.3,3.5c-2.1,0.1-3.5-1.3-3.6-3.8c-0.1-1.8,0.6-3.2,1.3-4c-0.4-0.4-0.7-1-0.7-1.8c0-0.8,0.2-1.6,0.5-2.1
			c-0.9-0.9-1.4-2.5-1.5-4.4c-0.1-2.6,0.9-4,2.8-4.1c0.4,0,0.8,0,1.2,0.1c0-1.7,0.6-2.4,1.5-2.4c0.5,0,1,0.2,1,0.7
			c0,0.3-0.1,0.5-0.3,0.7c-0.1-0.1-0.4-0.1-0.6-0.1c-0.5,0-0.7,0.3-0.7,1.5c0.7,0.5,1.1,1.5,1.2,2.9c0.2,3.4-1.2,5.6-3,5.7
			C187.1,133.5,186.9,133.4,186.6,133.4z M185.7,128.3c0.1,2.1,0.7,3.9,1.7,3.8c1,0,1.7-1.8,1.6-4.1c-0.1-1.7-0.7-2.4-1.8-2.4
			C186.2,125.7,185.6,126.6,185.7,128.3z M186.8,137.4c-0.5,0.6-0.8,1.7-0.7,3.2c0.1,1.5,0.8,2.7,2.1,2.6c1.2-0.1,1.9-0.9,1.9-2.1
			C190,139.4,189.2,138.9,186.8,137.4z"/>
		<path id="XMLID_2143_" class="st2" d="M194.2,127.7c0.4-2.2,1.6-3.8,2.9-3.8c1.3-0.1,2.1,1.4,2.3,3.4c0.2,3.5,0.3,7.8,0.6,11
			c-0.1,0.2-0.3,0.4-0.8,0.4c-0.4,0-0.8-0.2-0.8-0.7c-0.2-3.6-0.2-6-0.4-9.6c-0.1-1.7-0.6-2.7-1.4-2.7c-1.1,0.1-2.2,2.6-2.1,5
			c0.1,2.5,0.3,5.5,0.6,7.8c-0.1,0.2-0.4,0.3-0.8,0.4c-0.6,0-0.8-0.3-0.8-0.7c-0.3-4.5-0.5-9.4-1-13.9c0.1-0.1,0.4-0.3,0.8-0.4
			c0.5,0,0.8,0.3,0.8,0.8C194.1,125.6,194.2,126.7,194.2,127.7z"/>
		<path id="XMLID_2139_" class="st2" d="M211.3,136c-0.7,1.2-1.5,2-2.5,2c-1.5,0.1-3.2-1.2-3.3-4.4c-0.1-2,0.6-3.4,1.4-4.8
			c-0.9-1.8-1.5-3.7-1.6-5.4c-0.2-3.2,1.1-4.4,2.5-4.5c1.4-0.1,2.8,0.9,3,3.6c0.1,2.7-1.2,4.4-2.3,6.2c0.7,1.5,1.7,2.9,2.6,4.2
			c0.2-1,0.3-2.1,0.2-3.1c0-0.9-0.3-1.5-0.4-1.9c0.2-0.1,0.4-0.2,0.7-0.2c0.5,0,0.7,0.1,0.8,0.4c0.2,0.4,0.3,1,0.3,1.7
			c0.1,1.6-0.2,3.2-0.6,4.6c0.9,1.1,1.6,1.9,2,2.3c0,0.7-0.2,0.9-0.8,1c-0.5,0-0.7-0.2-1-0.5C212,136.9,211.7,136.5,211.3,136z
			 M207.7,127.4c0.9-1.4,1.6-2.8,1.5-4.7c-0.1-1.3-0.6-2.4-1.3-2.3c-0.9,0-1.3,1.1-1.2,3.1C206.8,124.8,207.1,126.1,207.7,127.4z
			 M210.4,134.8c-0.9-1.3-1.9-2.8-2.8-4.5c-0.4,0.9-0.7,2-0.6,3.2c0.1,2,1,3,1.8,3C209.4,136.5,210,135.8,210.4,134.8z"/>
		<path id="XMLID_2136_" class="st2" d="M223.6,135.4c-0.4,1.2-1.1,2-2,2.1c-1.2,0.1-2.8-1.5-3.1-6.9c-0.3-5.5,0.5-7.7,2.4-7.8
			c1-0.1,1.7,0.8,2.2,1.9c-0.2-2.9-0.4-5.5-0.6-7.5c0.2-0.1,0.5-0.3,0.9-0.3c0.4,0,0.7,0.3,0.8,0.7c0.3,6.2,0.7,15,1.1,19.6
			c-0.2,0.2-0.5,0.3-0.8,0.3c-0.4,0-0.8-0.1-0.8-0.5C223.5,136.5,223.5,136,223.6,135.4z M223.1,126.1c-0.5-1.1-1.2-2-2-1.9
			c-1.1,0.1-1.5,2-1.3,5.8c0.2,4.3,1.2,5.8,2.1,5.8c0.6,0,1.5-1,1.4-2.7C223.3,130.8,223.2,128.4,223.1,126.1z"/>
		<path id="XMLID_2133_" class="st2" d="M228.4,130.7c0.3,3.4,1.1,5.1,2.5,5c0.8,0,1.3-0.7,1.4-1.2c0.1-0.1,0.3-0.2,0.5-0.2
			c0.3,0,0.6,0.2,0.6,0.6c0,0.4-0.1,0.7-0.4,1.1c-0.4,0.5-1,1-2.2,1.1c-2.7,0.1-3.7-3-3.9-7.5c-0.2-4.6,0.9-7.3,2.9-7.4
			c1.9-0.1,3,2.2,3.2,6.9c0,0.4,0,1-0.1,1.3C231.5,130.5,229.8,130.5,228.4,130.7z M228.3,129.4c1.1-0.1,2.3-0.1,3.4-0.3
			c-0.2-3.7-0.9-5.5-1.8-5.5C228.8,123.7,228.1,125.3,228.3,129.4z"/>
		<path id="XMLID_2131_" class="st2" d="M237.9,136c-1.5-4.7-2.7-9.2-4-13.8c0.2-0.1,0.5-0.2,0.8-0.3c0.3,0,0.8,0.1,0.9,0.6
			c1.1,3.9,2,7.6,3.1,11.2c0.5-3.5,1.6-9.3,1.8-12c0.1-0.1,0.4-0.1,0.7-0.1c0.4,0,0.7,0.3,0.8,0.6c0,0.2,0,0.3,0,0.6
			c-0.6,4.5-1.9,9.3-2.3,13.6c-0.3,0.2-0.5,0.2-0.8,0.3C238.4,136.6,238,136.5,237.9,136z"/>
		<path id="XMLID_2128_" class="st2" d="M244.9,129.8c0.3,3.4,1.1,5.1,2.5,5c0.8,0,1.3-0.7,1.4-1.2c0.1-0.1,0.3-0.2,0.5-0.2
			c0.3,0,0.6,0.2,0.6,0.6c0,0.4-0.1,0.7-0.4,1.1c-0.4,0.5-1,1-2.2,1.1c-2.7,0.1-3.7-3-3.9-7.5c-0.2-4.6,0.9-7.3,2.9-7.4
			c1.9-0.1,3,2.2,3.2,6.9c0,0.4,0,1-0.1,1.3C248,129.7,246.3,129.7,244.9,129.8z M244.8,128.6c1.1-0.1,2.3-0.1,3.4-0.3
			c-0.2-3.7-0.9-5.5-1.8-5.5C245.3,122.9,244.6,124.5,244.8,128.6z"/>
		<path id="XMLID_2126_" class="st2" d="M252,132c-0.4-5.5-0.4-10.2-0.9-16.4c0.1-0.2,0.3-0.3,0.7-0.3c0.5,0,0.8,0.3,0.8,0.8
			c0.3,5.7,0.3,10.6,0.7,15.5c0.1,1.5,0.8,2.6,1.9,2.6c0.4,0,0.7-0.1,1-0.3c0.2,0.2,0.3,0.4,0.4,0.9c0,0.6-0.7,1-1.4,1
			C253.3,135.9,252.1,134.5,252,132z"/>
		<path id="XMLID_2123_" class="st2" d="M256.9,128.2c-0.3-4.9,0.9-7.4,3.1-7.5c1.9,0,3.3,2.4,3.5,6.7c0.3,5.9-1.2,8-2.8,8.1
			C258.7,135.6,257.2,133.3,256.9,128.2z M258.4,128.1c0.2,3.9,1,6,2.3,6c1,0,1.7-2.4,1.5-6.6c-0.2-3.3-0.9-5.3-2.1-5.3
			C258.7,122.3,258.2,124.3,258.4,128.1z"/>
		<path id="XMLID_2120_" class="st2" d="M267.5,133.6c0.1,2.4,0.3,5.3,0.5,6.6c-0.2,0.2-0.4,0.3-0.9,0.3c-0.4,0-0.7-0.2-0.8-0.7
			c-0.3-3.9-0.7-16.1-1.1-19.3c0.2-0.1,0.5-0.2,0.8-0.2c0.5,0,0.8,0.2,0.8,0.6c0,0.6,0,1.3,0,1.9c0.4-1.2,1.3-2.6,2.4-2.7
			c1.9-0.1,2.7,2.5,2.9,6.8c0.3,5.4-0.8,8-2.7,8C268.7,135.1,267.9,134.6,267.5,133.6z M267.5,131.2c0.1,1.3,0.8,2.4,1.7,2.4
			c1.3-0.1,1.9-1.8,1.6-6.4c-0.2-4.5-1-5.4-1.8-5.4c-0.8,0-1.9,1.4-1.9,3.2C267.2,127.2,267.4,129.6,267.5,131.2z"/>
		<path id="XMLID_2118_" class="st2" d="M281,134.3c-0.2,0.2-0.5,0.2-0.8,0.3c-0.4,0-0.7-0.3-0.7-0.7c0-0.3-0.2-6.8-0.5-9.5
			c-0.2-2-0.6-2.8-1.2-2.7c-1,0-2,2.5-1.9,5.1c0.1,2.5,0.3,5.3,0.5,7.8c-0.2,0.1-0.3,0.3-0.7,0.3c-0.4,0-0.7-0.1-0.7-0.7
			c-0.2-4.5-0.5-9.4-0.8-13.9c0.1-0.2,0.3-0.4,0.7-0.4c0.4,0,0.8,0.1,0.8,0.7c0,1,0,2,0.1,3.1c0.3-2.3,1.4-3.9,2.5-4
			c1.1,0,1.8,0.9,2.1,3.1c0.6-2.2,1.5-3.3,2.6-3.3c1.3-0.1,2.1,1.3,2.3,4.3c0.2,3.2,0.3,6.8,0.7,10c-0.2,0.2-0.4,0.4-0.8,0.5
			c-0.5,0-0.8-0.2-0.8-0.8c-0.1-3.1-0.2-6-0.5-9.1c-0.2-2-0.6-2.9-1.3-2.8c-1.1,0.1-1.9,2-1.8,4.3
			C280.5,128.4,280.8,131.8,281,134.3z"/>
		<path id="XMLID_2115_" class="st2" d="M288.7,127.6c0.3,3.4,1.1,5.1,2.5,5c0.8,0,1.3-0.7,1.4-1.2c0.1-0.1,0.3-0.2,0.5-0.2
			c0.3,0,0.6,0.2,0.6,0.6c0,0.4-0.1,0.7-0.4,1.1c-0.4,0.5-1,1-2.2,1.1c-2.7,0.1-3.7-3-3.9-7.5c-0.2-4.6,0.9-7.3,2.9-7.4
			c1.9-0.1,3,2.2,3.2,6.9c0,0.4,0,1-0.1,1.3C291.9,127.4,290.1,127.5,288.7,127.6z M288.6,126.4c1.1-0.1,2.3-0.1,3.4-0.3
			c-0.2-3.7-0.9-5.5-1.8-5.5C289.1,120.7,288.4,122.3,288.6,126.4z"/>
		<path id="XMLID_2113_" class="st2" d="M297,122.5c0.4-2.2,1.6-3.8,2.9-3.8c1.3-0.1,2.1,1.4,2.3,3.4c0.2,3.5,0.3,7.8,0.6,11
			c-0.1,0.2-0.3,0.4-0.8,0.4c-0.4,0-0.8-0.2-0.8-0.7c-0.2-3.6-0.2-6-0.4-9.6c-0.1-1.7-0.6-2.7-1.4-2.7c-1.1,0.1-2.2,2.6-2.1,5
			c0.1,2.5,0.3,5.5,0.6,7.8c-0.1,0.2-0.4,0.3-0.8,0.4c-0.6,0-0.8-0.3-0.8-0.7c-0.3-4.5-0.5-9.4-1-13.9c0.1-0.1,0.4-0.3,0.8-0.4
			c0.5,0,0.8,0.3,0.8,0.8C296.8,120.4,296.9,121.5,297,122.5z"/>
		<path id="XMLID_2111_" class="st2" d="M306.7,119.8c0.1,3.1,0.1,6.4,0.3,9.3c0.1,1.7,0.6,2.5,1.5,2.4c0.4,0,0.9-0.2,1.3-0.4
			c0.2,0.2,0.3,0.5,0.3,0.9c0,0.6-0.7,1.1-1.6,1.1c-1.8,0.1-2.8-1.4-2.9-3.9c-0.2-3-0.2-6.2-0.4-9.3c-0.4,0-0.9,0-1.3,0
			c-0.4,0-0.7-0.2-0.7-0.7c0-0.4,0.2-0.7,0.3-0.8c0.5,0,1.1,0,1.6,0c-0.1-1.4-0.2-2.8-0.3-4.1c0.2-0.1,0.4-0.2,0.8-0.2
			c0.5,0,0.7,0.2,0.7,0.6c0.1,1.2,0.2,2.4,0.2,3.7c0.8,0,1.5-0.1,2.2-0.2c0.5-0.1,0.7,0.2,0.7,0.6c0,0.4-0.1,0.6-0.1,0.8
			C308.6,119.7,307.6,119.7,306.7,119.8z"/>
		<path id="XMLID_2108_" class="st2" d="M129.1,162.2c0.4-0.9,1-1.5,1.9-1.5c2.2-0.1,3,4,3.2,7.4c0.2,4.9-1,7.5-3.3,7.6
			c-1,0-2-0.4-2.6-0.8c0.1-4-0.9-15.7-1-19.4c0.3-0.2,0.5-0.3,0.8-0.3c0.4,0,0.8,0.2,0.8,0.6C129,157.9,129,160.1,129.1,162.2z
			 M129.2,163.9c0.2,4,0.5,7.7,0.5,10.1c0.3,0.2,0.6,0.3,1.1,0.3c1.3-0.1,2.1-2.1,1.9-6c-0.1-2.6-0.7-6-1.9-6
			C130.2,162.3,129.6,162.9,129.2,163.9z"/>
		<path id="XMLID_2106_" class="st2" d="M138.4,175.1c-0.2,0.1-0.6,0.2-1,0.3c-0.5,0-0.7-0.2-0.8-0.7c-0.2-4.5-0.4-9.2-0.7-13.8
			c0.2-0.1,0.3-0.3,0.7-0.3c0.5,0,0.9,0.2,0.9,0.8c0,1.1,0,2.3,0,3.5c0.4-2.1,1.6-4.4,3.1-4.5c1.3-0.1,1.8,1,2,3
			c0,0.4-0.3,0.8-0.7,0.8c-0.3,0-0.6-0.1-0.8-0.4c-0.1-1.3-0.4-1.6-0.9-1.6c-1.3,0.1-2.5,3-2.4,5.2
			C137.9,169.8,138.2,172.9,138.4,175.1z"/>
		<path id="XMLID_2103_" class="st2" d="M148.9,172.3c-0.4,1.4-1.3,2.5-2.4,2.5c-1.3,0.1-2.4-1-2.5-4c-0.1-3,1.3-4.7,4.5-4.9
			c0-0.9-0.1-1.7-0.1-2c-0.1-1.6-0.7-2.6-1.9-2.5c-0.9,0-1.3,0.6-1.5,1.7c-0.7,0.3-1.2-0.1-1.2-0.8c0-0.6,0.2-1.1,0.5-1.4
			c0.4-0.5,1.2-0.9,2-0.9c2.1-0.1,3.4,1.1,3.5,3.5c0,1.7,0.5,9.8,0.6,11c-0.2,0.1-0.3,0.2-0.7,0.2c-0.4,0-0.7-0.2-0.8-0.6
			C148.9,174,148.9,173.2,148.9,172.3z M148.5,167.2c-2.4,0.3-3.3,1.3-3.2,3.6c0.1,1.7,0.7,2.7,1.5,2.6c1.1-0.1,2-1.7,1.8-3.7
			C148.6,168.9,148.5,168,148.5,167.2z"/>
		<path id="XMLID_2101_" class="st2" d="M153.8,163.4c0.4-2.2,1.6-3.8,2.9-3.8c1.3-0.1,2.1,1.4,2.3,3.4c0.2,3.5,0.3,7.8,0.6,11
			c-0.1,0.2-0.3,0.4-0.8,0.4c-0.4,0-0.8-0.2-0.8-0.7c-0.2-3.6-0.2-6-0.4-9.6c-0.1-1.7-0.6-2.7-1.4-2.7c-1.1,0.1-2.2,2.6-2.1,5
			c0.1,2.5,0.3,5.5,0.6,7.8c-0.1,0.2-0.4,0.3-0.8,0.4c-0.6,0-0.8-0.3-0.8-0.7c-0.3-4.5-0.5-9.4-1-13.9c0.1-0.1,0.4-0.3,0.8-0.4
			c0.5,0,0.8,0.3,0.8,0.8C153.6,161.3,153.7,162.4,153.8,163.4z"/>
		<path id="XMLID_2098_" class="st2" d="M166.3,171.9c-0.4,1.2-1.1,2-2,2.1c-1.2,0.1-2.8-1.5-3.1-6.9c-0.3-5.5,0.5-7.7,2.4-7.8
			c1-0.1,1.7,0.8,2.2,1.9c-0.2-2.9-0.4-5.5-0.6-7.5c0.2-0.1,0.5-0.3,0.9-0.3c0.4,0,0.7,0.3,0.8,0.7c0.3,6.2,0.7,15,1.1,19.6
			c-0.2,0.2-0.5,0.3-0.8,0.3c-0.4,0-0.8-0.1-0.8-0.5C166.2,173.1,166.2,172.5,166.3,171.9z M165.8,162.6c-0.5-1.1-1.2-2-2-1.9
			c-1.1,0.1-1.5,2-1.3,5.8c0.2,4.3,1.2,5.8,2.1,5.8c0.6,0,1.5-1,1.5-2.7C166,167.4,165.9,165,165.8,162.6z"/>
		<path id="XMLID_2095_" class="st2" d="M169.7,156.2c0-0.7-0.1-1.3-0.1-2.1c0.2-0.1,0.4-0.2,0.7-0.2c0.3,0,0.7,0.2,0.8,0.6
			c0,0.7,0,1.5,0.1,2.2c-0.2,0.1-0.5,0.2-0.8,0.3C170,156.9,169.7,156.7,169.7,156.2z M170.3,173c-0.1-4.5-0.5-10.2-0.6-14
			c0.1-0.1,0.3-0.2,0.7-0.2c0.4,0,0.8,0.2,0.8,0.6c0.1,4.1,0.4,9.8,0.6,14.1c-0.1,0.1-0.3,0.2-0.7,0.2
			C170.8,173.7,170.3,173.5,170.3,173z"/>
		<path id="XMLID_2093_" class="st2" d="M175.5,162.3c0.4-2.2,1.6-3.8,2.9-3.8c1.3-0.1,2.1,1.4,2.3,3.4c0.2,3.5,0.3,7.8,0.6,11
			c-0.1,0.2-0.3,0.4-0.8,0.4c-0.4,0-0.8-0.2-0.8-0.7c-0.2-3.6-0.2-6-0.4-9.6c-0.1-1.7-0.6-2.7-1.4-2.7c-1.1,0.1-2.2,2.6-2.1,5
			c0.1,2.5,0.3,5.5,0.6,7.8c-0.1,0.2-0.4,0.3-0.8,0.4c-0.6,0-0.8-0.3-0.8-0.7c-0.3-4.5-0.5-9.4-1-13.9c0.1-0.1,0.4-0.3,0.8-0.4
			c0.5,0,0.8,0.3,0.8,0.8C175.4,160.2,175.5,161.3,175.5,162.3z"/>
		<path id="XMLID_2089_" class="st2" d="M185.1,167.1c-0.1,0.3-0.2,0.6-0.2,1.1c0,0.7,0.7,1.4,1.5,1.9c2.7,1.7,3.5,2.6,3.6,4.6
			c0.1,2-1.5,3.4-3.3,3.5c-2.1,0.1-3.5-1.3-3.6-3.8c-0.1-1.8,0.6-3.2,1.3-4c-0.4-0.4-0.7-1-0.7-1.8c0-0.8,0.2-1.6,0.5-2.1
			c-0.9-0.9-1.4-2.5-1.5-4.4c-0.1-2.6,0.9-4,2.8-4.1c0.4,0,0.8,0,1.2,0.1c0-1.7,0.6-2.4,1.5-2.4c0.5,0,1,0.2,1,0.7
			c0,0.3-0.1,0.5-0.3,0.7c-0.1-0.1-0.4-0.1-0.6-0.1c-0.5,0-0.7,0.3-0.7,1.5c0.7,0.5,1.1,1.5,1.2,2.9c0.2,3.4-1.2,5.6-3,5.7
			C185.6,167.2,185.4,167.1,185.1,167.1z M184.2,162c0.1,2.1,0.7,3.9,1.7,3.8c1,0,1.7-1.8,1.6-4.1c-0.1-1.7-0.7-2.4-1.8-2.4
			C184.7,159.4,184.1,160.3,184.2,162z M185.3,171.1c-0.5,0.6-0.8,1.7-0.7,3.2c0.1,1.5,0.8,2.7,2.1,2.6c1.2-0.1,1.9-0.9,1.9-2.1
			C188.5,173.1,187.7,172.6,185.3,171.1z"/>
		<path id="XMLID_2085_" class="st2" d="M200.8,170.2c-0.7,1.2-1.5,2-2.5,2c-1.5,0.1-3.2-1.2-3.3-4.4c-0.1-2,0.6-3.4,1.4-4.8
			c-0.9-1.8-1.5-3.7-1.6-5.4c-0.2-3.2,1.1-4.4,2.5-4.5c1.4-0.1,2.8,0.9,3,3.6c0.1,2.7-1.2,4.4-2.3,6.2c0.7,1.5,1.7,2.9,2.6,4.2
			c0.2-1,0.3-2.1,0.2-3.1c0-0.9-0.3-1.5-0.4-1.9c0.2-0.1,0.4-0.2,0.7-0.2c0.5,0,0.7,0.1,0.8,0.4c0.2,0.4,0.3,1,0.3,1.7
			c0.1,1.6-0.2,3.2-0.6,4.6c0.9,1.1,1.6,1.9,2,2.3c0,0.7-0.2,0.9-0.8,1c-0.5,0-0.7-0.2-1-0.5C201.5,171.1,201.1,170.7,200.8,170.2z
			 M197.1,161.6c0.9-1.4,1.6-2.8,1.5-4.7c-0.1-1.3-0.6-2.4-1.3-2.3c-0.9,0-1.3,1.1-1.2,3.1C196.2,158.9,196.6,160.3,197.1,161.6z
			 M199.9,169c-0.9-1.3-1.9-2.8-2.8-4.5c-0.4,0.9-0.7,2-0.6,3.2c0.1,2,1,3,1.8,3C198.9,170.7,199.5,170,199.9,169z"/>
		<path id="XMLID_2083_" class="st2" d="M208.5,167.9c-0.4-5.5-0.4-10.2-0.9-16.4c0.1-0.2,0.3-0.3,0.7-0.3c0.5,0,0.8,0.3,0.8,0.8
			c0.3,5.7,0.3,10.6,0.7,15.5c0.1,1.5,0.8,2.6,1.9,2.6c0.4,0,0.7-0.1,1-0.3c0.2,0.2,0.3,0.4,0.4,0.9c0,0.6-0.7,1-1.4,1
			C209.8,171.7,208.6,170.3,208.5,167.9z"/>
		<path id="XMLID_2080_" class="st2" d="M213.4,164c-0.3-4.9,0.9-7.4,3.1-7.5c1.9,0,3.3,2.4,3.5,6.7c0.3,5.9-1.2,8-2.8,8.1
			C215.2,171.4,213.7,169.1,213.4,164z M214.8,163.9c0.2,3.9,1,6,2.3,6c1,0,1.7-2.4,1.5-6.6c-0.2-3.3-0.9-5.3-2.1-5.3
			C215.2,158.1,214.7,160.1,214.8,163.9z"/>
		<path id="XMLID_2076_" class="st2" d="M224.1,165.1c-0.1,0.3-0.2,0.6-0.2,1.1c0,0.7,0.7,1.4,1.5,1.9c2.7,1.7,3.5,2.6,3.6,4.6
			c0.1,2-1.5,3.4-3.3,3.5c-2.1,0.1-3.5-1.3-3.6-3.8c-0.1-1.8,0.6-3.2,1.3-4c-0.4-0.4-0.7-1-0.7-1.8c0-0.8,0.2-1.6,0.5-2.1
			c-0.9-0.9-1.4-2.5-1.5-4.4c-0.1-2.6,0.9-4,2.8-4.1c0.4,0,0.8,0,1.2,0.1c0-1.7,0.6-2.4,1.5-2.4c0.5,0,1,0.2,1,0.7
			c0,0.3-0.1,0.5-0.3,0.7c-0.1-0.1-0.4-0.1-0.6-0.1c-0.5,0-0.7,0.3-0.7,1.5c0.7,0.5,1.1,1.5,1.2,2.9c0.2,3.4-1.2,5.6-3,5.7
			C224.6,165.2,224.3,165.2,224.1,165.1z M223.2,160c0.1,2.1,0.7,3.9,1.7,3.8c1,0,1.7-1.8,1.6-4.1c-0.1-1.7-0.7-2.4-1.8-2.4
			C223.6,157.5,223.1,158.3,223.2,160z M224.3,169.1c-0.5,0.6-0.8,1.7-0.7,3.2c0.1,1.5,0.8,2.7,2.1,2.6c1.2-0.1,1.9-0.9,1.9-2.1
			C227.5,171.2,226.7,170.7,224.3,169.1z"/>
		<path id="XMLID_2073_" class="st2" d="M229.9,163.2c-0.3-4.9,0.9-7.4,3.1-7.5c1.9,0,3.3,2.4,3.5,6.7c0.3,5.9-1.2,8-2.8,8.1
			C231.7,170.6,230.2,168.3,229.9,163.2z M231.4,163.1c0.2,3.9,1,6,2.3,6c1,0,1.7-2.4,1.5-6.6c-0.2-3.3-0.9-5.3-2.1-5.3
			C231.7,157.3,231.2,159.3,231.4,163.1z"/>
		<path id="XMLID_2070_" class="st2" d="M246.9,167.8c-0.4,1.2-1.1,2-2,2.1c-1.2,0.1-2.8-1.5-3.1-6.9c-0.3-5.5,0.5-7.7,2.4-7.8
			c1-0.1,1.7,0.8,2.2,1.9c-0.2-2.9-0.4-5.5-0.6-7.5c0.2-0.1,0.5-0.3,0.9-0.3c0.4,0,0.7,0.3,0.8,0.7c0.3,6.2,0.7,15,1.1,19.6
			c-0.2,0.2-0.5,0.3-0.8,0.3c-0.4,0-0.8-0.1-0.8-0.5C246.8,169,246.9,168.4,246.9,167.8z M246.4,158.5c-0.5-1.1-1.2-2-2-1.9
			c-1.1,0.1-1.5,2-1.3,5.8c0.2,4.3,1.2,5.8,2.1,5.8c0.6,0,1.5-1,1.5-2.7C246.7,163.3,246.5,160.9,246.4,158.5z"/>
		<path id="XMLID_2067_" class="st2" d="M251.7,163.1c0.3,3.4,1.1,5.1,2.5,5c0.8,0,1.3-0.7,1.4-1.2c0.1-0.1,0.3-0.2,0.5-0.2
			c0.3,0,0.6,0.2,0.6,0.6c0,0.4-0.1,0.7-0.4,1.1c-0.4,0.5-1,1-2.2,1.1c-2.7,0.1-3.7-3-3.9-7.5c-0.2-4.6,0.9-7.3,2.9-7.4
			c1.9-0.1,3,2.2,3.2,6.9c0,0.4,0,1-0.1,1.3C254.8,163,253.1,163,251.7,163.1z M251.6,161.9c1.1-0.1,2.3-0.1,3.4-0.3
			c-0.2-3.7-0.9-5.5-1.8-5.5C252.1,156.2,251.4,157.8,251.6,161.9z"/>
		<path id="XMLID_2065_" class="st2" d="M258.7,168.5c-0.2-0.2-0.4-0.5-0.4-0.8c0-0.4,0.2-0.7,0.6-0.8c0.4,0.3,1,0.9,2,0.9
			c1.1-0.1,1.8-1,1.7-2.1c-0.1-2.4-4.4-4-4.6-7.4c-0.1-2.3,1-3.8,2.8-3.9c0.7,0,1.4,0.1,2,0.5c0.3,0.2,0.5,0.5,0.5,1
			c0,0.4-0.3,0.8-0.7,0.8c-0.3-0.3-0.9-0.9-1.8-0.8c-0.9,0-1.4,1-1.4,2.1c0.1,2.9,4.5,4.4,4.7,7.5c0.1,2.1-1.3,3.6-3.1,3.7
			C260,169.2,259.3,168.9,258.7,168.5z"/>
		<path id="XMLID_2062_" class="st2" d="M265.6,151.4c0-0.7-0.1-1.3-0.1-2.1c0.2-0.1,0.4-0.2,0.7-0.2c0.3,0,0.7,0.2,0.8,0.6
			c0,0.7,0,1.5,0.1,2.2c-0.2,0.1-0.5,0.2-0.8,0.3C265.9,152,265.6,151.8,265.6,151.4z M266.2,168.1c-0.1-4.5-0.5-10.2-0.6-14
			c0.1-0.1,0.3-0.2,0.7-0.2c0.4,0,0.8,0.2,0.8,0.6c0.1,4.1,0.4,9.8,0.6,14.1c-0.1,0.1-0.3,0.2-0.7,0.2
			C266.7,168.8,266.2,168.7,266.2,168.1z"/>
		<path id="XMLID_2058_" class="st2" d="M272,162.7c-0.1,0.3-0.2,0.6-0.2,1.1c0,0.7,0.7,1.4,1.5,1.9c2.7,1.7,3.5,2.6,3.6,4.6
			c0.1,2-1.5,3.4-3.3,3.5c-2.1,0.1-3.5-1.3-3.6-3.8c-0.1-1.8,0.6-3.2,1.3-4c-0.4-0.4-0.7-1-0.7-1.8c0-0.8,0.2-1.6,0.5-2.1
			c-0.9-0.9-1.4-2.5-1.5-4.4c-0.1-2.6,0.9-4,2.8-4.1c0.4,0,0.8,0,1.2,0.1c0-1.7,0.6-2.4,1.5-2.4c0.5,0,1,0.2,1,0.7
			c0,0.3-0.1,0.5-0.3,0.7c-0.1-0.1-0.4-0.1-0.6-0.1c-0.5,0-0.7,0.3-0.7,1.5c0.7,0.5,1.1,1.5,1.2,2.9c0.2,3.4-1.2,5.6-3,5.7
			C272.4,162.8,272.2,162.8,272,162.7z M271,157.6c0.1,2.1,0.7,3.9,1.7,3.8c1,0,1.7-1.8,1.6-4.1c-0.1-1.7-0.7-2.4-1.8-2.4
			C271.5,155,270.9,155.9,271,157.6z M272.1,166.7c-0.5,0.6-0.8,1.7-0.7,3.2c0.1,1.5,0.8,2.7,2.1,2.6c1.2-0.1,1.9-0.9,1.9-2.1
			C275.3,168.8,274.5,168.3,272.1,166.7z"/>
		<path id="XMLID_2056_" class="st2" d="M279.6,157c0.4-2.2,1.6-3.8,2.9-3.8c1.3-0.1,2.1,1.4,2.3,3.4c0.2,3.5,0.3,7.8,0.6,11
			c-0.1,0.2-0.3,0.4-0.8,0.4c-0.4,0-0.8-0.2-0.8-0.7c-0.2-3.6-0.2-6-0.4-9.6c-0.1-1.7-0.6-2.7-1.4-2.7c-1.1,0.1-2.2,2.6-2.1,5
			c0.1,2.5,0.3,5.5,0.6,7.8c-0.1,0.2-0.4,0.3-0.8,0.4c-0.6,0-0.8-0.3-0.8-0.7c-0.3-4.5-0.5-9.4-1-13.9c0.1-0.1,0.4-0.3,0.8-0.4
			c0.5,0,0.8,0.3,0.8,0.8C279.4,154.9,279.5,156,279.6,157z"/>
		<path id="XMLID_2054_" class="st2" d="M106.8,210.3c-0.2,0.2-0.5,0.2-0.8,0.3c-0.4,0-0.7-0.3-0.7-0.7c0-0.3-0.2-6.8-0.5-9.5
			c-0.2-2-0.6-2.8-1.2-2.7c-1,0-2,2.5-1.9,5.1c0.1,2.5,0.3,5.3,0.5,7.8c-0.2,0.1-0.3,0.3-0.7,0.3c-0.4,0-0.7-0.1-0.7-0.7
			c-0.2-4.5-0.5-9.4-0.8-13.9c0.1-0.2,0.3-0.4,0.7-0.4c0.4,0,0.8,0.1,0.8,0.7c0,1,0,2,0.1,3.1c0.3-2.3,1.4-3.9,2.5-4
			c1.1,0,1.8,0.9,2.1,3.1c0.6-2.2,1.5-3.3,2.6-3.3c1.3-0.1,2.1,1.3,2.3,4.3c0.2,3.2,0.3,6.8,0.7,10c-0.2,0.2-0.4,0.4-0.8,0.5
			c-0.5,0-0.8-0.2-0.8-0.8c-0.1-3.1-0.2-6-0.5-9.1c-0.2-2-0.6-2.9-1.3-2.8c-1.1,0.1-1.9,2-1.8,4.3
			C106.3,204.5,106.5,207.9,106.8,210.3z"/>
		<path id="XMLID_2051_" class="st2" d="M118.1,207.5c-0.4,1.4-1.3,2.5-2.4,2.5c-1.3,0.1-2.4-1-2.5-4c-0.1-3,1.3-4.7,4.5-4.9
			c0-0.9-0.1-1.7-0.1-2c-0.1-1.6-0.7-2.6-1.9-2.5c-0.9,0-1.3,0.6-1.5,1.7c-0.7,0.3-1.2-0.1-1.2-0.8c0-0.6,0.2-1.1,0.5-1.4
			c0.4-0.5,1.2-0.9,2-0.9c2.1-0.1,3.4,1.1,3.5,3.5c0,1.7,0.5,9.8,0.6,11c-0.2,0.1-0.3,0.2-0.7,0.2c-0.4,0-0.7-0.2-0.8-0.6
			C118.2,209.2,118.1,208.4,118.1,207.5z M117.7,202.4c-2.4,0.3-3.3,1.3-3.2,3.6c0.1,1.7,0.7,2.7,1.5,2.6c1.1-0.1,2-1.7,1.8-3.7
			C117.8,204.1,117.8,203.2,117.7,202.4z"/>
		<path id="XMLID_2049_" class="st2" d="M123.8,209.5c-0.2,0.1-0.6,0.2-1,0.3c-0.5,0-0.7-0.2-0.8-0.7c-0.2-4.5-0.4-9.2-0.7-13.8
			c0.2-0.1,0.3-0.3,0.7-0.3c0.5,0,0.9,0.2,0.9,0.8c0,1.1,0,2.3,0,3.5c0.4-2.1,1.6-4.4,3.1-4.5c1.3-0.1,1.8,1,2,3
			c0,0.4-0.3,0.8-0.7,0.8c-0.3,0-0.6-0.1-0.8-0.4c-0.1-1.3-0.4-1.6-0.9-1.6c-1.3,0.1-2.5,3-2.4,5.2
			C123.2,204.2,123.5,207.3,123.8,209.5z"/>
		<path id="XMLID_2047_" class="st2" d="M130.7,209.3c-0.5,0-0.8-0.2-0.8-0.7c-0.2-5.3-1-13.1-1.2-19.5c0.1-0.2,0.3-0.4,0.7-0.4
			c0.5,0,0.8,0.3,0.8,0.8c0.1,4.9,0.4,9.6,0.8,14.5c1.7-1.4,2.4-3.5,2.3-5.8c-0.1-1.5-0.9-2.6-2.1-2.6c-0.1-0.1-0.1-0.3-0.1-0.5
			c0-0.4,0.3-0.7,0.8-0.7c1.7-0.1,2.8,1.5,2.9,3.8c0.1,2.3-1.1,5.1-2.8,6.3c1.2,0.5,2,3,2.9,3c0.3,0,0.5-0.2,0.6-0.3
			c0.2,0.1,0.5,0.2,0.5,0.7c0,0.6-0.5,1.2-1.2,1.2c-1.8,0.1-2.1-3.3-3.7-3.6c0.1,1.1,0.2,2.6,0.2,3.6
			C131.3,209.2,131.1,209.3,130.7,209.3z"/>
		<path id="XMLID_2044_" class="st2" d="M138.3,202.5c0.3,3.4,1.1,5.1,2.5,5c0.8,0,1.3-0.7,1.4-1.2c0.1-0.1,0.3-0.2,0.5-0.2
			c0.3,0,0.6,0.2,0.6,0.6c0,0.4-0.1,0.7-0.4,1.1c-0.4,0.5-1,1-2.2,1.1c-2.7,0.1-3.7-3-3.9-7.5c-0.2-4.6,0.9-7.3,2.9-7.4
			c1.9-0.1,3,2.2,3.2,6.9c0,0.4,0,1-0.1,1.3C141.5,202.3,139.8,202.4,138.3,202.5z M138.3,201.3c1.1-0.1,2.3-0.1,3.4-0.3
			c-0.2-3.7-0.9-5.5-1.8-5.5C138.8,195.6,138.1,197.2,138.3,201.3z"/>
		<path id="XMLID_2042_" class="st2" d="M147.3,195.1c0.1,3.1,0.1,6.4,0.3,9.3c0.1,1.7,0.6,2.5,1.5,2.4c0.4,0,0.9-0.2,1.3-0.4
			c0.2,0.2,0.3,0.5,0.3,0.9c0,0.6-0.7,1.1-1.6,1.1c-1.8,0.1-2.8-1.4-2.9-3.9c-0.2-3-0.2-6.2-0.4-9.3c-0.4,0-0.9,0-1.3,0
			c-0.4,0-0.7-0.2-0.7-0.7c0-0.4,0.2-0.7,0.3-0.8c0.5,0,1.1,0,1.6,0c-0.1-1.4-0.2-2.8-0.3-4.1c0.2-0.1,0.4-0.2,0.8-0.2
			c0.5,0,0.7,0.2,0.7,0.6c0.1,1.2,0.2,2.4,0.2,3.7c0.8,0,1.5-0.1,2.2-0.2c0.5-0.1,0.7,0.2,0.7,0.6c0,0.4-0.1,0.6-0.1,0.8
			C149.1,195,148.2,195.1,147.3,195.1z"/>
		<path id="XMLID_2039_" class="st2" d="M151.7,190.8c0-0.7-0.1-1.3-0.1-2.1c0.2-0.1,0.4-0.2,0.7-0.2c0.3,0,0.7,0.2,0.8,0.6
			c0,0.7,0,1.5,0.1,2.2c-0.2,0.1-0.5,0.2-0.8,0.3C152,191.4,151.7,191.2,151.7,190.8z M152.4,207.5c-0.1-4.5-0.5-10.2-0.6-14
			c0.1-0.1,0.3-0.2,0.7-0.2c0.4,0,0.8,0.2,0.8,0.6c0.1,4.1,0.4,9.8,0.6,14.1c-0.1,0.1-0.3,0.2-0.7,0.2
			C152.9,208.2,152.4,208.1,152.4,207.5z"/>
		<path id="XMLID_2037_" class="st2" d="M157.6,196.8c0.4-2.2,1.6-3.8,2.9-3.8c1.3-0.1,2.1,1.4,2.3,3.4c0.2,3.5,0.3,7.8,0.6,11
			c-0.1,0.2-0.3,0.4-0.8,0.4c-0.4,0-0.8-0.2-0.8-0.7c-0.2-3.6-0.2-6-0.4-9.6c-0.1-1.7-0.6-2.7-1.4-2.7c-1.1,0.1-2.2,2.6-2.1,5
			c0.1,2.5,0.3,5.5,0.6,7.8c-0.1,0.2-0.4,0.3-0.8,0.4c-0.6,0-0.8-0.3-0.8-0.7c-0.3-4.5-0.5-9.4-1-13.9c0.1-0.1,0.4-0.3,0.8-0.4
			c0.5,0,0.8,0.3,0.8,0.8C157.5,194.7,157.5,195.8,157.6,196.8z"/>
		<path id="XMLID_2033_" class="st2" d="M167.2,201.6c-0.1,0.3-0.2,0.6-0.2,1.1c0,0.7,0.7,1.4,1.5,1.9c2.7,1.7,3.5,2.6,3.6,4.6
			c0.1,2-1.5,3.4-3.3,3.5c-2.1,0.1-3.5-1.3-3.6-3.8c-0.1-1.8,0.6-3.2,1.3-4c-0.4-0.4-0.7-1-0.7-1.8c0-0.8,0.2-1.6,0.5-2.1
			c-0.9-0.9-1.4-2.5-1.5-4.4c-0.1-2.6,0.9-4,2.8-4.1c0.4,0,0.8,0,1.2,0.1c0-1.7,0.6-2.4,1.5-2.4c0.5,0,1,0.2,1,0.7
			c0,0.3-0.1,0.5-0.3,0.7c-0.1-0.1-0.4-0.1-0.6-0.1c-0.5,0-0.7,0.3-0.7,1.5c0.7,0.5,1.1,1.5,1.2,2.9c0.2,3.4-1.2,5.6-3,5.7
			C167.7,201.7,167.4,201.7,167.2,201.6z M166.2,196.6c0.1,2.1,0.7,3.9,1.7,3.8c1,0,1.7-1.8,1.6-4.1c-0.1-1.7-0.7-2.4-1.8-2.4
			C166.7,194,166.1,194.9,166.2,196.6z M167.4,205.6c-0.5,0.6-0.8,1.7-0.7,3.2c0.1,1.5,0.8,2.7,2.1,2.6c1.2-0.1,1.9-0.9,1.9-2.1
			C170.6,207.7,169.8,207.2,167.4,205.6z"/>
		<path id="XMLID_2031_" class="st2" d="M176.9,206.2c-0.2-0.2-0.4-0.5-0.4-0.8c0-0.4,0.2-0.7,0.6-0.8c0.4,0.3,1,0.9,2,0.9
			c1.1-0.1,1.8-1,1.7-2.1c-0.1-2.4-4.4-4-4.6-7.4c-0.1-2.3,1-3.8,2.8-3.9c0.7,0,1.4,0.1,2,0.5c0.2,0.2,0.5,0.5,0.5,1
			c0,0.4-0.3,0.8-0.7,0.8c-0.3-0.3-0.9-0.9-1.8-0.9c-0.9,0-1.4,1-1.4,2.1c0.1,2.9,4.5,4.4,4.7,7.5c0.1,2.1-1.3,3.6-3.1,3.7
			C178.2,206.9,177.5,206.6,176.9,206.2z"/>
		<path id="XMLID_2029_" class="st2" d="M186.4,193.1c0.1,3.1,0.1,6.4,0.3,9.3c0.1,1.7,0.6,2.5,1.5,2.4c0.4,0,0.9-0.2,1.3-0.4
			c0.2,0.2,0.3,0.5,0.3,0.9c0,0.6-0.7,1.1-1.6,1.1c-1.8,0.1-2.8-1.4-2.9-3.9c-0.2-3-0.2-6.2-0.4-9.3c-0.4,0-0.9,0-1.3,0.1
			c-0.4,0-0.7-0.2-0.7-0.7c0-0.4,0.2-0.7,0.3-0.8c0.5,0,1.1,0,1.6,0c-0.1-1.4-0.2-2.8-0.3-4.1c0.2-0.1,0.4-0.2,0.8-0.2
			c0.5,0,0.7,0.2,0.7,0.6c0.1,1.2,0.2,2.4,0.2,3.7c0.8,0,1.5-0.1,2.2-0.2c0.5-0.1,0.7,0.2,0.7,0.6c0,0.4-0.1,0.6-0.1,0.8
			C188.2,193,187.3,193.1,186.4,193.1z"/>
		<path id="XMLID_2027_" class="st2" d="M193.1,206c-0.2,0.1-0.6,0.2-1,0.3c-0.5,0-0.7-0.2-0.8-0.7c-0.2-4.5-0.4-9.2-0.7-13.8
			c0.2-0.1,0.3-0.3,0.7-0.3c0.5,0,0.9,0.2,0.9,0.8c0,1.1,0,2.3,0,3.5c0.4-2.1,1.6-4.4,3.1-4.5c1.3-0.1,1.8,1,2,3
			c0,0.4-0.3,0.8-0.7,0.8c-0.3,0-0.6-0.1-0.8-0.4c-0.1-1.3-0.4-1.6-0.9-1.6c-1.3,0.1-2.5,3-2.4,5.2
			C192.6,200.7,192.9,203.8,193.1,206z"/>
		<path id="XMLID_2024_" class="st2" d="M203.6,203.2c-0.4,1.4-1.3,2.5-2.4,2.5c-1.3,0.1-2.4-1-2.5-4c-0.1-3,1.3-4.7,4.5-4.9
			c0-0.9-0.1-1.7-0.1-2c-0.1-1.6-0.7-2.6-1.9-2.5c-0.9,0-1.3,0.6-1.5,1.7c-0.7,0.3-1.2-0.1-1.2-0.8c0-0.6,0.2-1.1,0.5-1.4
			c0.4-0.5,1.2-0.9,2-0.9c2.1-0.1,3.4,1.1,3.5,3.5c0,1.7,0.5,9.8,0.6,11c-0.2,0.1-0.3,0.2-0.7,0.2c-0.4,0-0.7-0.2-0.8-0.6
			C203.6,204.9,203.6,204,203.6,203.2z M203.2,198.1c-2.4,0.3-3.3,1.3-3.2,3.6c0.1,1.7,0.7,2.7,1.5,2.6c1.1-0.1,2-1.7,1.8-3.7
			C203.3,199.8,203.2,198.9,203.2,198.1z"/>
		<path id="XMLID_2022_" class="st2" d="M209.1,192c0.1,3.1,0.1,6.4,0.3,9.3c0.1,1.7,0.6,2.5,1.5,2.4c0.4,0,0.9-0.2,1.3-0.4
			c0.2,0.2,0.3,0.5,0.3,0.9c0,0.6-0.7,1.1-1.6,1.1c-1.8,0.1-2.8-1.4-2.9-3.9c-0.2-3-0.2-6.2-0.4-9.3c-0.4,0-0.9,0-1.3,0.1
			c-0.4,0-0.7-0.2-0.7-0.7c0-0.4,0.2-0.7,0.3-0.8c0.5,0,1.1,0,1.6,0c-0.1-1.4-0.2-2.8-0.3-4.1c0.2-0.1,0.4-0.2,0.8-0.2
			c0.5,0,0.7,0.2,0.7,0.6c0.1,1.2,0.2,2.4,0.2,3.7c0.8,0,1.5-0.1,2.2-0.2c0.5-0.1,0.7,0.2,0.7,0.6c0,0.4-0.1,0.6-0.1,0.8
			C211,191.9,210.1,191.9,209.1,192z"/>
		<path id="XMLID_2019_" class="st2" d="M214.6,198.6c0.3,3.4,1.1,5.1,2.5,5c0.8,0,1.3-0.7,1.4-1.2c0.1-0.1,0.3-0.2,0.5-0.2
			c0.3,0,0.6,0.2,0.6,0.6c0,0.4-0.1,0.7-0.4,1.1c-0.4,0.5-1,1-2.2,1.1c-2.7,0.1-3.7-3-3.9-7.5c-0.2-4.6,0.9-7.3,2.9-7.4
			c1.9-0.1,3,2.2,3.2,6.9c0,0.4,0,1-0.1,1.3C217.7,198.5,216,198.5,214.6,198.6z M214.5,197.4c1.1-0.1,2.3-0.1,3.4-0.3
			c-0.2-3.7-0.9-5.5-1.8-5.5C215,191.7,214.3,193.3,214.5,197.4z"/>
		<path id="XMLID_2015_" class="st2" d="M223.3,198.8c-0.1,0.3-0.2,0.6-0.2,1.1c0,0.7,0.7,1.4,1.5,1.9c2.7,1.7,3.5,2.6,3.6,4.6
			c0.1,2-1.5,3.4-3.3,3.5c-2.1,0.1-3.5-1.3-3.6-3.8c-0.1-1.8,0.6-3.2,1.3-4c-0.4-0.4-0.7-1-0.7-1.8c0-0.8,0.2-1.6,0.5-2.1
			c-0.9-0.9-1.4-2.5-1.5-4.4c-0.1-2.6,0.9-4,2.8-4.1c0.4,0,0.8,0,1.2,0.1c0-1.7,0.6-2.4,1.5-2.4c0.5,0,1,0.2,1,0.7
			c0,0.3-0.1,0.5-0.3,0.7c-0.1-0.1-0.4-0.1-0.6-0.1c-0.5,0-0.7,0.3-0.7,1.5c0.7,0.5,1.1,1.5,1.2,2.9c0.2,3.4-1.2,5.6-3,5.7
			C223.8,198.9,223.6,198.9,223.3,198.8z M222.4,193.7c0.1,2.1,0.7,3.9,1.7,3.8c1,0,1.7-1.8,1.6-4.1c-0.1-1.7-0.7-2.4-1.8-2.4
			C222.9,191.1,222.3,192,222.4,193.7z M223.5,202.8c-0.5,0.6-0.8,1.7-0.7,3.2c0.1,1.5,0.8,2.7,2.1,2.6c1.2-0.1,1.9-0.9,1.9-2.1
			C226.7,204.8,225.9,204.4,223.5,202.8z"/>
		<path id="XMLID_2013_" class="st2" d="M230.7,208.9c0-0.4,0.3-0.9,0.5-1.3c0.6-1.2,1.2-2.4,1.6-3.7c-0.2,0-0.3-0.2-0.4-0.4
			c-1.1-3.1-2.7-9.9-4-13.7c0.2-0.1,0.5-0.3,0.9-0.3c0.5,0,0.7,0.1,0.9,0.5c1.1,3.4,2.1,8.7,3.2,12.1c1.2-4.3,1.7-9,1.7-12.7
			c0.2-0.1,0.5-0.2,0.8-0.2c0.5,0,0.7,0.2,0.7,0.5c0,0.3,0,0.7,0,1.1c-0.1,2.8-0.4,5.9-1.2,8.9c-0.8,3.2-2.3,7.3-3.2,9.7
			c-0.2,0.1-0.5,0.2-0.8,0.2C231,209.6,230.7,209.3,230.7,208.9z"/>
		<path id="XMLID_2009_" class="st2" d="M248.1,201.5c-0.7,1.2-1.5,2-2.5,2c-1.5,0.1-3.2-1.2-3.3-4.4c-0.1-2,0.6-3.4,1.4-4.8
			c-0.9-1.8-1.5-3.7-1.6-5.4c-0.2-3.2,1.1-4.4,2.5-4.5c1.4-0.1,2.8,0.9,3,3.6c0.1,2.7-1.2,4.4-2.3,6.2c0.7,1.5,1.7,2.9,2.6,4.2
			c0.2-1,0.3-2.1,0.2-3.1c0-0.9-0.3-1.5-0.4-1.9c0.2-0.1,0.4-0.2,0.7-0.2c0.5,0,0.7,0.1,0.8,0.4c0.2,0.4,0.3,1,0.3,1.7
			c0.1,1.6-0.2,3.2-0.6,4.6c0.9,1.1,1.6,1.9,2,2.3c0,0.7-0.2,0.9-0.8,1c-0.5,0-0.7-0.2-1-0.5C248.8,202.4,248.4,202,248.1,201.5z
			 M244.4,192.9c0.9-1.4,1.6-2.8,1.5-4.7c-0.1-1.3-0.6-2.4-1.3-2.3c-0.9,0-1.3,1.1-1.2,3.1C243.5,190.2,243.9,191.5,244.4,192.9z
			 M247.2,200.2c-0.9-1.3-1.9-2.8-2.8-4.5c-0.4,0.9-0.7,2-0.6,3.2c0.1,2,1,3,1.8,3C246.2,202,246.8,201.3,247.2,200.2z"/>
		<path id="XMLID_2007_" class="st2" d="M257.6,202.7c-0.2,0.1-0.6,0.2-1,0.3c-0.5,0-0.7-0.2-0.8-0.7c-0.2-4.5-0.4-9.2-0.7-13.8
			c0.2-0.1,0.3-0.3,0.7-0.3c0.5,0,0.9,0.2,0.9,0.8c0,1.1,0,2.3,0,3.5c0.4-2.1,1.6-4.4,3.1-4.5c1.3-0.1,1.8,1,2,3
			c0,0.4-0.3,0.8-0.7,0.8c-0.3,0-0.6-0.1-0.8-0.4c-0.1-1.3-0.4-1.6-0.9-1.6c-1.3,0.1-2.5,3-2.4,5.2
			C257.1,197.4,257.4,200.5,257.6,202.7z"/>
		<path id="XMLID_2004_" class="st2" d="M264.6,196.1c0.3,3.4,1.1,5.1,2.5,5c0.8,0,1.3-0.7,1.4-1.2c0.1-0.1,0.3-0.2,0.5-0.2
			c0.3,0,0.6,0.2,0.6,0.6c0,0.4-0.1,0.7-0.4,1.1c-0.4,0.5-1,1-2.2,1.1c-2.7,0.1-3.7-3-3.9-7.5c-0.2-4.6,0.9-7.3,2.9-7.4
			c1.9-0.1,3,2.2,3.2,6.9c0,0.4,0,1-0.1,1.3C267.8,195.9,266,196,264.6,196.1z M264.5,194.9c1.1-0.1,2.3-0.1,3.4-0.3
			c-0.2-3.7-0.9-5.5-1.8-5.5C265,189.2,264.3,190.8,264.5,194.9z"/>
		<path id="XMLID_2002_" class="st2" d="M271.7,201.4c-0.2-0.2-0.4-0.5-0.4-0.8c0-0.4,0.2-0.7,0.6-0.8c0.4,0.3,1,0.9,2,0.9
			c1.1-0.1,1.8-1,1.7-2.1c-0.1-2.4-4.4-4-4.6-7.4c-0.1-2.3,1-3.8,2.8-3.9c0.7,0,1.4,0.1,2,0.5c0.2,0.2,0.5,0.5,0.5,1
			c0,0.4-0.3,0.8-0.7,0.8c-0.3-0.3-0.9-0.9-1.8-0.9c-0.9,0-1.4,1-1.4,2.1c0.1,2.9,4.5,4.4,4.7,7.5c0.1,2.1-1.3,3.6-3.1,3.7
			C272.9,202.2,272.2,201.9,271.7,201.4z"/>
		<path id="XMLID_1999_" class="st2" d="M279.9,195.3c0.3,3.4,1.1,5.1,2.5,5c0.8,0,1.3-0.7,1.4-1.2c0.1-0.1,0.3-0.2,0.5-0.2
			c0.3,0,0.6,0.2,0.6,0.6c0,0.4-0.1,0.7-0.4,1.1c-0.4,0.5-1,1-2.2,1.1c-2.7,0.1-3.7-3-3.9-7.5c-0.2-4.6,0.9-7.3,2.9-7.4
			c1.9-0.1,3,2.2,3.2,6.9c0,0.4,0,1-0.1,1.3C283,195.2,281.3,195.2,279.9,195.3z M279.8,194.1c1.1-0.1,2.3-0.1,3.4-0.3
			c-0.2-3.7-0.9-5.5-1.8-5.5C280.3,188.4,279.6,190,279.8,194.1z"/>
		<path id="XMLID_1996_" class="st2" d="M291.5,198.8c-0.4,1.4-1.3,2.5-2.4,2.5c-1.3,0.1-2.4-1-2.5-4c-0.1-3,1.3-4.7,4.5-4.9
			c0-0.9-0.1-1.7-0.1-2c-0.1-1.6-0.7-2.6-1.9-2.5c-0.9,0-1.3,0.6-1.5,1.7c-0.7,0.3-1.2-0.1-1.2-0.8c0-0.6,0.2-1.1,0.5-1.4
			c0.4-0.5,1.2-0.9,2-0.9c2.1-0.1,3.4,1.1,3.5,3.5c0,1.7,0.5,9.8,0.6,11c-0.2,0.1-0.3,0.2-0.7,0.2c-0.4,0-0.7-0.2-0.8-0.6
			C291.6,200.4,291.6,199.6,291.5,198.8z M291.1,193.6c-2.4,0.3-3.3,1.3-3.2,3.6c0.1,1.7,0.7,2.7,1.5,2.6c1.1-0.1,2-1.7,1.8-3.7
			C291.2,195.4,291.2,194.5,291.1,193.6z"/>
		<path id="XMLID_1994_" class="st2" d="M297.2,200.7c-0.2,0.1-0.6,0.2-1,0.3c-0.5,0-0.7-0.2-0.8-0.7c-0.2-4.5-0.4-9.2-0.7-13.8
			c0.2-0.1,0.3-0.3,0.7-0.3c0.5,0,0.9,0.2,0.9,0.8c0,1.1,0,2.3,0,3.5c0.4-2.1,1.6-4.4,3.1-4.5c1.3-0.1,1.8,1,2,3
			c0,0.4-0.3,0.8-0.7,0.8c-0.3,0-0.6-0.1-0.8-0.4c-0.1-1.3-0.4-1.6-0.9-1.6c-1.3,0.1-2.5,3-2.4,5.2
			C296.6,195.4,296.9,198.5,297.2,200.7z"/>
		<path id="XMLID_1992_" class="st2" d="M302.7,192.7c-0.2-4.6,0.9-7,3-7.1c0.7,0,1.6,0.2,1.6,0.8c0,0.4-0.2,0.7-0.4,0.8
			c-0.4-0.1-0.6-0.2-1.1-0.2c-1.4,0.1-1.9,1.9-1.7,5.7c0.2,4.1,1.1,6.3,2.6,6.2c0.5,0,0.8-0.2,1.2-0.4c0.3,0.1,0.5,0.3,0.5,0.7
			c0,0.6-0.8,1.1-1.6,1.1C304.2,200.6,302.9,197.5,302.7,192.7z"/>
		<path id="XMLID_1990_" class="st2" d="M310.9,188.5c0.3-1.7,1.1-3.2,2.7-3.3c1.2-0.1,2,1.1,2.1,3.9c0.1,3.3,0.4,7.6,0.7,10.7
			c-0.1,0.1-0.4,0.2-0.8,0.2c-0.4,0-0.7-0.2-0.7-0.7c-0.3-3.7-0.4-7.5-0.5-9.8c-0.1-1.7-0.5-2.6-1.2-2.6c-1.6,0.1-2,3.3-2,4.5
			c0,1.9,0.2,5.5,0.5,8.5c-0.2,0.1-0.3,0.2-0.8,0.3c-0.5,0-0.7-0.3-0.7-0.8c-0.3-6.9-0.7-14-1.1-19.4c0.2-0.2,0.4-0.4,0.8-0.4
			c0.5,0,0.8,0.4,0.9,1.2C310.8,183.5,310.8,185.8,310.9,188.5z"/>
	</g>
</g>
<g id="XMLID_252_">
	<circle id="XMLID_377_" class="st6" cx="304.8" cy="242.6" r="27.4"/>
	<path id="XMLID_376_" class="st3" d="M334.7,225.8l45.6-25.4c2.1-1.2,4.6-1.3,6.8-0.4h0c3.8,1.6,5.7,5.8,4.3,9.7v0
		c-0.8,2.3-2.6,4-4.8,4.8l-49.3,17L334.7,225.8z"/>
	<path id="XMLID_375_" class="st6" d="M329.8,231.4c0.7,1.6,1.2,3.2,1.6,4.8l6.6-3l-4.1-9.2l-6.6,3
		C328.3,228.4,329.1,229.9,329.8,231.4z"/>
	<circle id="XMLID_374_" class="st6" cx="304.8" cy="242.6" r="20.3"/>
	<path id="XMLID_373_" class="st7" d="M315,253.1c3.4-1.5,6.3-4,8.3-7.2c0.7-3.7,0.2-7.5-1.3-10.9c-4.2-9.5-15.4-13.7-24.8-9.5
		c-3.4,1.5-6.3,4-8.3,7.2c-0.7,3.7-0.2,7.5,1.3,10.9C294.4,253.1,305.5,257.3,315,253.1z"/>
	<line id="XMLID_254_" class="st3" x1="386.6" y1="214.5" x2="380.3" y2="200.4"/>
</g>
<g id="XMLID_61_">
	<circle id="XMLID_248_" class="st6" cx="65.2" cy="59.7" r="41.2"/>
	<path id="XMLID_133_" class="st6" d="M109,53.2L94.4,54c-2.8-14.3-15.7-24.7-30.7-24c-16.4,0.8-29.1,14.8-28.2,31.2
		s14.8,29.1,31.2,28.2c15-0.8,26.8-12.4,28.1-26.9l14.6-0.7c2.4-0.1,4.2-2.1,4.1-4.5C113.4,54.9,111.3,53.1,109,53.2z"/>
	<circle id="XMLID_63_" class="st3" cx="65.2" cy="59.7" r="23.6"/>
	<path id="XMLID_62_" class="st5" d="M79.4,42.7c-4.2-3.5-9.7-5.4-15.3-5.1c-12.2,0.6-21.7,11.1-21,23.3c0.3,5.7,2.7,10.9,6.6,14.7
		c-0.9-2.4-1.4-4.8-1.5-7.4c-0.7-13.8,10-25.6,23.7-26.3C74.5,41.8,77,42,79.4,42.7z"/>
</g>
</svg>
