<?xml version="1.0" encoding="utf-8"?>
<!-- Generator: Adobe Illustrator 19.0.0, SVG Export Plug-In . SVG Version: 6.00 Build 0)  -->
<svg version="1.1" id="Layer_1" xmlns="http://www.w3.org/2000/svg" xmlns:xlink="http://www.w3.org/1999/xlink" x="0px" y="0px"
	 viewBox="0 0 412 284" style="enable-background:new 0 0 412 284;" xml:space="preserve">
<style type="text/css">
	.st0{fill:#000212;}
	.st1{fill:#FFC13A;stroke:#333331;stroke-width:3;stroke-linecap:round;stroke-linejoin:round;stroke-miterlimit:10;}
	.st2{fill:none;stroke:#333331;stroke-width:3;stroke-linecap:round;stroke-linejoin:round;stroke-miterlimit:10;}
	.st3{fill:#FFFFFF;}
	.st4{fill:#FFFFFF;stroke:#333331;stroke-width:3;stroke-linecap:round;stroke-linejoin:round;stroke-miterlimit:10;}
	.st5{fill:#FFC13A;}
	.st6{display:none;}
	.st7{display:inline;fill:none;stroke:#000212;stroke-width:3;stroke-miterlimit:10;}
	.st8{display:inline;fill:none;}
	.st9{display:inline;fill:#000212;}
	.st10{font-family:'Florence-Regular';}
	.st11{font-size:51px;}
	.st12{display:inline;}
	.st13{fill:none;}
	.st14{font-size:28px;}
	
		.st15{display:inline;fill:#FFC13A;stroke:#333331;stroke-width:3;stroke-linecap:round;stroke-linejoin:round;stroke-miterlimit:10;}
	
		.st16{display:inline;fill:#FFFFFF;stroke:#333331;stroke-width:3;stroke-linecap:round;stroke-linejoin:round;stroke-miterlimit:10;}
</style>
<g id="hello">
	<g id="XMLID_118_">
		<path id="XMLID_119_" class="st0" d="M121.7,103.2c0-7.1-0.1-21.1-0.2-32c-0.1-11.3-0.5-28.9-0.3-35.3c0.8-0.4,1.5-0.5,2.8-0.5
			c1.8,0,3,0.7,3,3c0,6-0.1,18.1,0,30.6v1c5.1-0.2,10.2-0.3,15.2-0.2c-0.1-10.8-0.7-27.8-1.1-33.6c0.8-0.5,1.9-0.7,3.6-0.7
			c1.8,0,2.9,0.9,2.9,3.1c0,6.2,0.1,22.3,0.1,33.5c0.1,11.8,0.5,27.3,0.5,33.2c-0.7,0.5-1.1,0.9-2.7,0.9c-1.9,0-3.1-1-3.1-2.9
			c0-6.4,0.1-17.9,0-28.2c-5-0.2-10.1-0.2-15.2-0.2c0.1,12.8,0.2,25.7,0.3,30.4c-0.7,0.4-1.2,0.7-3,0.7
			C122.9,106.1,121.7,105.2,121.7,103.2z"/>
		<path id="XMLID_121_" class="st0" d="M161.8,82.4c0.4,12.6,3,19,8.4,19c2.9,0,4.8-2.2,5.4-4.4c0.4-0.4,1.1-0.6,1.9-0.6
			c1.2,0,2.2,0.8,2.2,2.4c0,1.4-0.4,2.5-1.5,3.8c-1.6,1.7-3.8,3.6-8.4,3.6c-10,0-13.2-11.7-13.2-28.4c0-17.1,4.8-26.7,12.1-26.7
			c7.1,0,10.7,8.8,10.7,26.2c0,1.5-0.3,3.8-0.7,4.9C173.5,82.4,167.1,82.2,161.8,82.4z M161.7,77.8c4.2-0.1,8.6-0.1,12.5-0.3
			c-0.1-13.7-2.3-20.7-5.8-20.7C164.7,56.8,161.8,62.6,161.7,77.8z"/>
		<path id="XMLID_124_" class="st0" d="M187.8,92.9c-0.4-20.4,0.3-37.4-0.1-60.5c0.5-0.7,1.3-1,2.8-1.1c1.9,0,2.9,1.4,2.9,3.2
			c0,21.3-0.7,39.2-0.5,57.3c0.1,6,1.9,8.9,6.1,8.9c1.1,0,2.2-0.2,3.2-0.5c0.6,0.7,0.8,1.9,0.8,3.2c0,2.1-2.6,3.2-5.4,3.2
			C191.3,106.5,187.9,102.6,187.8,92.9z M205.6,92.4c-0.3-20.4,0.3-38.8-0.1-61.9c0.5-0.6,1.4-1,2.8-1c1.9-0.1,2.9,1.4,2.9,3.2
			c0,21.3-0.7,40.6-0.5,58.6c0.1,5.7,2.4,9.4,6.7,9.4c1.6,0,2.6-0.3,3.8-1c0.8,0.6,1.2,1.7,1.2,3c0,2.5-2.7,3.8-5.5,3.8
			C209.9,106.4,205.7,101.4,205.6,92.4z"/>
		<path id="XMLID_127_" class="st0" d="M224.7,78.5c-0.1-18.3,4.6-27.3,13-27.1c7.2,0.2,11.9,9.5,11.9,25.5
			c0.1,21.9-6,29.5-12.1,29.5C230,106.4,224.7,97.6,224.7,78.5z M230.1,78.5c0.1,14.5,2.5,22.4,7.3,22.6c3.8,0.1,6.9-8.4,6.8-24.1
			c-0.1-12.3-2.4-19.9-6.9-19.9C232.6,57.1,230.1,64.3,230.1,78.5z"/>
		<path id="XMLID_130_" class="st0" d="M260.8,106.1c-3.7-0.3-5-2-5-5.7c0-2.7,0.7-4,1.5-5c2-0.2,3.7-0.1,5.3,0.4
			c2.3,0.8,3.1,3,3.1,6c-0.1,5.3-3,13.2-6.7,13.2c-1.1,0-2.3-0.9-2.4-2.3C258.5,111.5,260,109.4,260.8,106.1z"/>
	</g>
	<g id="XMLID_98_">
		<g id="XMLID_275_">
			<path id="XMLID_314_" class="st0" d="M134,148.4c-0.4,0.2-0.7,0.3-1.3,0.3c-0.7,0-1.1-0.5-1.1-1.2c0-0.5,0.2-11-0.1-15.2
				c-0.2-3.2-0.7-4.5-1.8-4.5c-1.6,0-3.4,3.9-3.4,8.1c0,4,0.1,8.5,0.2,12.5c-0.3,0.2-0.5,0.4-1.2,0.4c-0.6,0-1.1-0.3-1.1-1.1
				c0-7.3,0-15.1-0.2-22.4c0.2-0.3,0.6-0.5,1.1-0.6c0.7,0,1.3,0.2,1.2,1.2c0,1.5-0.1,3.2-0.2,5c0.7-3.7,2.5-6.2,4.3-6.2
				c1.8,0,2.8,1.7,3.2,5.2c1.1-3.4,2.7-5.2,4.4-5.1c2.1,0,3.2,2.3,3.3,7.1c0.1,5.2-0.1,10.9,0.3,16.1c-0.3,0.4-0.7,0.7-1.4,0.7
				c-0.8,0-1.2-0.5-1.2-1.3c0-5,0.1-9.7,0-14.7c-0.1-3.2-0.8-4.7-1.9-4.6c-1.7,0-3.2,3-3.2,6.7C133.8,139,133.9,144.5,134,148.4z"/>
			<path id="XMLID_312_" class="st0" d="M146.1,156.1c0-0.6,0.5-1.3,0.8-2c1.1-1.8,2.1-3.8,2.9-5.9c-0.3-0.1-0.5-0.3-0.6-0.7
				c-1.5-5-3.5-16.2-5.3-22.3c0.3-0.2,0.9-0.4,1.4-0.4c0.8,0,1.2,0.2,1.4,0.8c1.5,5.6,2.6,14.2,4.2,19.7c2.3-6.8,3.5-14.3,3.7-20.3
				c0.3-0.2,0.8-0.2,1.3-0.2c0.8,0,1.1,0.4,1.1,0.9c0,0.5,0,1.1-0.1,1.8c-0.4,4.5-1.2,9.4-2.6,14.2c-1.5,5-4.2,11.5-5.9,15.3
				c-0.3,0.1-0.8,0.2-1.3,0.2C146.6,157.3,146.1,156.8,146.1,156.1z"/>
			<path id="XMLID_310_" class="st0" d="M167.8,130.9c0.8-3.4,2.8-5.9,4.9-5.9c2.1,0,3.3,2.4,3.4,5.6c0,5.6-0.2,12.6,0,17.7
				c-0.2,0.3-0.6,0.5-1.3,0.5c-0.6,0-1.2-0.3-1.2-1.2c0-5.7,0.2-9.6,0.1-15.4c0-2.7-0.7-4.4-2-4.4c-1.8,0-3.7,4-3.7,7.8
				c0,4,0.1,8.9,0.2,12.6c-0.2,0.3-0.7,0.5-1.3,0.5c-0.9,0-1.2-0.6-1.2-1.1c0-7.2-0.1-15.2-0.5-22.4c0.2-0.2,0.6-0.5,1.4-0.5
				c0.8,0,1.3,0.6,1.2,1.3C167.8,127.5,167.8,129.2,167.8,130.9z"/>
			<path id="XMLID_307_" class="st0" d="M187.2,144.8c-0.8,2.2-2.3,3.9-4.1,3.9c-2.1,0-3.8-1.8-3.8-6.7c0-4.7,2.5-7.4,7.6-7.5
				c0-1.5,0-2.7,0-3.2c0-2.6-0.9-4.2-2.9-4.2c-1.4,0-2.2,0.8-2.5,2.5c-1.1,0.4-1.9-0.2-1.9-1.3c0-1,0.5-1.7,1-2.1
				c0.7-0.8,2-1.3,3.3-1.3c3.3,0,5.4,2,5.3,5.9c-0.1,2.7,0,15.7,0.1,17.7c-0.3,0.2-0.6,0.3-1.2,0.3c-0.7,0-1.2-0.3-1.2-1.1
				C187.1,147.5,187.1,146.1,187.2,144.8z M187,136.5c-3.9,0.2-5.5,1.8-5.5,5.5c0,2.7,0.9,4.3,2.2,4.3c1.8,0,3.3-2.5,3.3-5.8
				C187,139.3,187,137.9,187,136.5z"/>
			<path id="XMLID_305_" class="st0" d="M203.3,148.4c-0.4,0.2-0.7,0.3-1.3,0.3c-0.7,0-1.1-0.5-1.1-1.2c0-0.5,0.2-11-0.1-15.2
				c-0.2-3.2-0.7-4.5-1.8-4.5c-1.6,0-3.4,3.9-3.4,8.1c0,4,0.1,8.5,0.2,12.5c-0.3,0.2-0.5,0.4-1.2,0.4c-0.6,0-1.1-0.3-1.1-1.1
				c0-7.3,0-15.1-0.2-22.4c0.2-0.3,0.6-0.5,1.1-0.6c0.7,0,1.3,0.2,1.2,1.2c0,1.5-0.1,3.2-0.2,5c0.7-3.7,2.5-6.2,4.3-6.2
				c1.8,0,2.8,1.7,3.2,5.2c1.1-3.4,2.7-5.2,4.4-5.1c2.1,0,3.2,2.3,3.3,7.1c0.1,5.2-0.1,10.9,0.3,16.1c-0.3,0.4-0.7,0.7-1.4,0.7
				c-0.8,0-1.2-0.5-1.2-1.3c0-5,0.1-9.7,0-14.7c-0.1-3.2-0.8-4.7-1.9-4.6c-1.7,0-3.2,3-3.2,6.7C203,139,203.1,144.5,203.3,148.4z"/>
			<path id="XMLID_302_" class="st0" d="M216.2,138.4c0.2,5.5,1.3,8.2,3.6,8.2c1.3,0,2.1-1,2.3-1.9c0.2-0.2,0.5-0.2,0.8-0.2
				c0.5,0,0.9,0.3,0.9,1c0,0.6-0.2,1.1-0.7,1.7c-0.7,0.7-1.7,1.6-3.6,1.6c-4.3,0-5.7-5.1-5.7-12.3c0-7.4,2.1-11.6,5.2-11.6
				c3.1,0,4.6,3.8,4.6,11.3c0,0.7-0.1,1.7-0.3,2.1C221.3,138.4,218.5,138.3,216.2,138.4z M216.2,136.4c1.8,0,3.7,0,5.4-0.1
				c0-5.9-1-9-2.5-9C217.4,127.3,216.2,129.8,216.2,136.4z"/>
			<path id="XMLID_278_" class="st0" d="M232.8,147.6c0.3-7.2,0-16.5,0.2-22.5c0.2-0.2,0.5-0.3,1.1-0.3c0.6,0,1.2,0.4,1.2,1
				c-0.2,6.5-0.2,15.8-0.1,22.6c-0.2,0.2-0.5,0.3-1.1,0.3C233.5,148.7,232.7,148.4,232.8,147.6z M233.1,120.6c0-1.1,0-2.1,0-3.4
				c0.3-0.2,0.7-0.3,1.2-0.3c0.5,0,1.2,0.3,1.2,1c0,1.1,0,2.4,0,3.5c-0.3,0.2-0.8,0.4-1.2,0.4C233.5,121.7,233.1,121.3,233.1,120.6z
				"/>
			<path id="XMLID_276_" class="st0" d="M239.3,147.5c-0.3-0.3-0.6-0.9-0.6-1.4c0-0.6,0.5-1.2,1.1-1.2c0.6,0.5,1.6,1.6,3.2,1.6
				c1.8,0,2.9-1.4,2.9-3.3c0-3.8-6.7-6.8-6.7-12.2c0-3.7,1.9-6,4.8-6c1.1,0,2.3,0.3,3.1,1c0.4,0.4,0.7,0.8,0.7,1.6
				c0,0.7-0.6,1.2-1.2,1.2c-0.4-0.6-1.4-1.5-2.8-1.5c-1.5,0-2.4,1.4-2.4,3.3c0,4.7,6.9,7.4,6.9,12.4c0,3.4-2.4,5.7-5.3,5.7
				C241.2,148.7,240.1,148.2,239.3,147.5z"/>
		</g>
	</g>
	<g id="XMLID_2_">
		<g id="XMLID_281_">
			<path id="XMLID_300_" class="st0" d="M124.7,190.9c0.1-10.4-0.1-21.3-0.1-31.3c0.4-0.2,0.8-0.3,1.4-0.3c0.9,0,1.3,0.6,1.6,1.4
				c2.8,8.4,5.6,16.6,8.4,24.2c0-5.8-0.2-11.3-0.4-16.6c-0.1-2.2-0.2-6.3-0.2-8.5c0.4-0.3,0.9-0.4,1.4-0.4c0.8,0,1.3,0.3,1.3,1.2
				c0,1.6,0,2.8,0,4.3c0,8.6,0.1,18,0.3,26.9c-0.3,0.2-0.7,0.4-1.3,0.4c-0.8,0-1.2-0.4-1.4-1c-2.7-7.9-6-16.8-8.7-24.7
				c0,9.3,0.4,17.6,0.4,25.3c-0.3,0.2-0.6,0.5-1.4,0.5C125.1,192.3,124.7,191.8,124.7,190.9z"/>
			<path id="XMLID_297_" class="st0" d="M153.7,188.1c-0.8,2.4-2.4,4.2-4.3,4.2c-2.2,0-4-2-4-7.1c0-5.1,2.6-7.8,8.1-8
				c0-1.6,0-2.9,0-3.4c0-2.8-1-4.5-3.1-4.5c-1.5,0-2.3,0.9-2.6,2.7c-1.2,0.4-2-0.2-2-1.4c0-1.1,0.5-1.8,1.1-2.3
				c0.7-0.8,2.2-1.4,3.6-1.4c3.6,0,5.7,2.1,5.6,6.3c-0.1,2.9,0,16.8,0.1,18.9c-0.3,0.2-0.6,0.3-1.3,0.3c-0.7,0-1.2-0.4-1.2-1.2
				C153.6,190.9,153.7,189.5,153.7,188.1z M153.5,179.2c-4.2,0.2-5.8,2-5.8,5.9c0,2.9,0.9,4.6,2.4,4.6c1.9,0,3.5-2.7,3.5-6.2
				C153.5,182.2,153.5,180.7,153.5,179.2z"/>
			<path id="XMLID_295_" class="st0" d="M167.3,169.4c-0.1,5.4-0.4,10.9-0.2,15.9c0.1,2.9,0.9,4.3,2.4,4.3c0.8,0,1.6-0.2,2.2-0.6
				c0.3,0.3,0.5,0.9,0.5,1.5c0,1.1-1.2,1.8-2.8,1.8c-3.2,0-4.7-2.6-4.7-7c0-5.2,0.1-10.7,0.1-15.9c-0.8,0-1.5,0-2.2,0
				c-0.7,0-1.2-0.4-1.2-1.2c0-0.7,0.3-1.2,0.5-1.3c0.9,0,1.8,0.1,2.8,0.1c0-2.4,0-4.8-0.1-7.1c0.3-0.2,0.7-0.3,1.3-0.3
				c0.8,0,1.1,0.4,1.2,1.1c0.1,2,0.1,4.2,0.1,6.3c1.3,0,2.6,0,3.7-0.1c0.8-0.1,1.2,0.4,1.2,1.2c0,0.6-0.2,1-0.3,1.3
				C170.5,169.3,168.9,169.3,167.3,169.4z"/>
			<path id="XMLID_293_" class="st0" d="M180.7,172.1c0.7-2.9,2.2-5.4,4.9-5.4c2.1,0,3.3,2.1,3.2,6.9c0,5.7,0.1,13,0.3,18.4
				c-0.2,0.1-0.7,0.3-1.4,0.3c-0.7,0-1.2-0.4-1.2-1.2c-0.2-6.4,0-12.9-0.1-16.8c-0.1-2.9-0.6-4.5-1.8-4.5c-2.8,0-3.7,5.4-3.8,7.5
				c-0.1,3.3-0.1,9.4,0.1,14.6c-0.3,0.2-0.6,0.4-1.3,0.4c-0.9,0-1.2-0.6-1.2-1.4c0.1-11.8,0.1-24.1-0.3-33.3
				c0.3-0.3,0.7-0.6,1.5-0.6c0.9,0,1.4,0.8,1.4,2.1C181,163.6,180.7,167.6,180.7,172.1z"/>
			<path id="XMLID_290_" class="st0" d="M204,188.1c-0.8,2.4-2.4,4.2-4.3,4.2c-2.2,0-4-2-4-7.1c0-5.1,2.6-7.8,8.1-8
				c0-1.6,0-2.9,0-3.4c0-2.8-1-4.5-3.1-4.5c-1.5,0-2.3,0.9-2.6,2.7c-1.2,0.4-2-0.2-2-1.4c0-1.1,0.5-1.8,1.1-2.3
				c0.7-0.8,2.2-1.4,3.6-1.4c3.6,0,5.7,2.1,5.6,6.3c-0.1,2.9,0,16.8,0.1,18.9c-0.3,0.2-0.6,0.3-1.3,0.3c-0.7,0-1.2-0.4-1.2-1.2
				C203.9,190.9,204,189.5,204,188.1z M203.8,179.2c-4.2,0.2-5.8,2-5.8,5.9c0,2.9,0.9,4.6,2.4,4.6c1.9,0,3.5-2.7,3.5-6.2
				C203.8,182.2,203.8,180.7,203.8,179.2z"/>
			<path id="XMLID_288_" class="st0" d="M213.7,185.6c-0.1-9.4,0.1-17.4,0-28.1c0.2-0.3,0.6-0.5,1.3-0.5c0.9,0,1.3,0.6,1.3,1.5
				c0,9.8-0.3,18.2-0.2,26.6c0,2.6,1.1,4.6,3.1,4.6c0.7,0,1.2-0.1,1.8-0.5c0.4,0.3,0.6,0.8,0.6,1.6c0,1-1.2,1.6-2.5,1.6
				C215.6,192.3,213.7,189.8,213.7,185.6z"/>
			<path id="XMLID_285_" class="st0" d="M226.6,191.1c0.3-7.7,0-17.6,0.2-24c0.3-0.2,0.6-0.3,1.2-0.3c0.6,0,1.3,0.4,1.2,1.1
				c-0.2,7-0.2,16.8-0.1,24.1c-0.2,0.2-0.5,0.3-1.2,0.3C227.4,192.3,226.5,191.9,226.6,191.1z M227,162.3c0-1.2,0-2.3,0-3.6
				c0.3-0.2,0.7-0.4,1.3-0.4c0.6,0,1.2,0.4,1.2,1c0,1.2,0,2.5,0,3.7c-0.4,0.2-0.8,0.4-1.3,0.4C227.4,163.5,227,163.1,227,162.3z"/>
			<path id="XMLID_282_" class="st0" d="M244.7,188.1c-0.8,2.4-2.4,4.2-4.3,4.2c-2.2,0-4-2-4-7.1c0-5.1,2.6-7.8,8.1-8
				c0-1.6,0-2.9,0-3.4c0-2.8-1-4.5-3.1-4.5c-1.5,0-2.3,0.9-2.6,2.7c-1.2,0.4-2-0.2-2-1.4c0-1.1,0.5-1.8,1.1-2.3
				c0.7-0.8,2.2-1.4,3.6-1.4c3.6,0,5.7,2.1,5.6,6.3c-0.1,2.9,0,16.8,0.1,18.9c-0.3,0.2-0.6,0.3-1.3,0.3c-0.7,0-1.2-0.4-1.2-1.2
				C244.6,190.9,244.6,189.5,244.7,188.1z M244.5,179.2c-4.2,0.2-5.8,2-5.8,5.9c0,2.9,0.9,4.6,2.4,4.6c1.9,0,3.5-2.7,3.5-6.2
				C244.5,182.2,244.5,180.7,244.5,179.2z"/>
		</g>
	</g>
	<g id="glasses">
		<path id="XMLID_53_" class="st1" d="M204.4,249.2l-8.7,1.9c-8,1.7-16-3.4-17.7-11.4l-1.3-6c-0.8-3.7,0.6-7.6,3.6-10l3.1-2.4
			c5.4-4.2,12.1-6.4,18.9-6l6.4,0.3c5.4,0.3,9.6,4.8,9.4,10.2l-0.2,6.9C217.7,240.7,212.1,247.5,204.4,249.2z"/>
		<line id="XMLID_52_" class="st2" x1="176.6" y1="233.7" x2="168.4" y2="235.5"/>
		<path id="XMLID_51_" class="st1" d="M256.4,237.8l8.7-1.9c8-1.7,13.1-9.7,11.4-17.7l-1.3-6c-0.8-3.7-3.7-6.7-7.4-7.6l-3.8-0.9
			c-6.6-1.6-13.7-0.8-19.7,2.4l-5.7,3c-4.8,2.5-6.7,8.3-4.4,13.2l3,6.2C240.8,235.7,248.7,239.5,256.4,237.8z"/>
		<line id="XMLID_50_" class="st2" x1="275.2" y1="212.3" x2="283.5" y2="210.5"/>
		<path id="XMLID_49_" class="st2" d="M216.1,219.8c0,0,6.8-9.9,16.6-3.6"/>
		<g id="XMLID_46_">
			<path id="XMLID_47_" class="st3" d="M235.9,221.6l0.5,1.1c10.9-4.1,19.9-10.5,24.7-17.6c-3.1-0.5-6.3-0.3-9.4,0.3
				c-2.3,0.5-4.5,1.3-6.6,2.4l-5.7,3C235.6,212.8,234,217.5,235.9,221.6z"/>
			<path id="XMLID_48_" class="st3" d="M216.2,227.1l0-1.3c0.1-4.5-3.3-8.2-7.8-8.4c0,0,0,0,0,0l-6.4-0.3
				c-5.8-0.3-11.5,1.3-16.2,4.5C193.4,226.1,204.4,228.1,216.2,227.1z"/>
		</g>
	</g>
	<g id="notebook">
		
			<rect id="XMLID_147_" x="299.2" y="77.5" transform="matrix(0.892 0.452 -0.452 0.892 90.6259 -138.2795)" class="st4" width="71.1" height="86"/>
		
			<rect id="XMLID_134_" x="294.5" y="70.9" transform="matrix(0.892 0.452 -0.452 0.892 89.0558 -136.4285)" class="st4" width="71.1" height="94.6"/>
		
			<rect id="XMLID_153_" x="280.7" y="85.7" transform="matrix(-0.452 0.892 -0.892 -0.452 578.5375 -122.3333)" class="st5" width="92.4" height="61.7"/>
		
			<rect id="XMLID_146_" x="328" y="115.8" transform="matrix(0.892 0.452 -0.452 0.892 93.4134 -143.1562)" class="st4" width="36.7" height="16.3"/>
		<polygon id="XMLID_148_" class="st4" points="371.6,100.5 367.5,95.3 361,95.1 367.8,81.6 378.5,87 		"/>
		
			<rect id="XMLID_149_" x="297.8" y="57" transform="matrix(0.892 0.452 -0.452 0.892 79.823 -125.5441)" class="st1" width="9.7" height="94.6"/>
	</g>
	<g id="pen">
		
			<rect id="XMLID_151_" x="375.1" y="127.7" transform="matrix(0.8735 0.4869 -0.4869 0.8735 122.6993 -165.4511)" class="st1" width="9.2" height="51.3"/>
		<path id="XMLID_152_" class="st1" d="M397.2,121.8L397.2,121.8c-1.3-0.8-3-0.3-3.8,1.1l-3.7,6.7l4.9,2.7l3.7-6.7
			C399,124.3,398.6,122.6,397.2,121.8z"/>
		<path id="XMLID_155_" class="st1" d="M363.1,173.5l-0.6,7.2c-0.1,1.5,1.6,2.5,2.9,1.6l5.8-4.3L363.1,173.5z"/>
		
			<rect id="XMLID_154_" x="365.5" y="164.3" transform="matrix(0.8735 0.4869 -0.4869 0.8735 129.8026 -158.6614)" class="st4" width="9.2" height="12.2"/>
		<polyline id="XMLID_156_" class="st2" points="385.8,132.9 397.8,139.6 386.9,159.3 		"/>
	</g>
	<g id="postit">
		<polygon id="XMLID_6_" class="st4" points="63.1,181.7 46.1,214.9 70.2,227.3 74.9,218.3 83.9,222.9 96.3,198.8 		"/>
		<polygon id="XMLID_5_" class="st4" points="70.2,227.3 83.9,222.9 74.9,218.3 		"/>
		<line id="XMLID_4_" class="st4" x1="59.9" y1="188" x2="68" y2="192.2"/>
		<line id="XMLID_3_" class="st4" x1="74.6" y1="195.5" x2="93.1" y2="205"/>
	</g>
</g>
<g id="love" class="st6">
	<path id="XMLID_137_" class="st7" d="M285.5,254L86.1,222.8c-4.2-0.7-7.1-4.7-6.5-8.9l23.9-152.6c0.7-4.2,4.7-7.1,8.9-6.5L311.8,86
		c4.2,0.7,7.1,4.7,6.5,8.9l-23.9,152.6C293.7,251.7,289.7,254.6,285.5,254z"/>
	
		<rect id="XMLID_63_" x="91.2" y="90.7" transform="matrix(0.988 0.1545 -0.1545 0.988 20.1714 -30.9742)" class="st8" width="236.3" height="47.2"/>
	<text id="XMLID_62_" transform="matrix(0.988 0.1545 -0.1545 0.988 137.382 116.692)" class="st9 st10 st11">what I love</text>
	<line id="XMLID_132_" class="st7" x1="157.1" y1="128.2" x2="251.9" y2="143"/>
	<g id="XMLID_133_" class="st12">
		
			<rect id="XMLID_254_" x="128.6" y="156.4" transform="matrix(0.988 0.1545 -0.1545 0.988 32.5451 -28.6414)" class="st13" width="143.8" height="77.2"/>
		<text id="XMLID_252_" transform="matrix(0.988 0.1545 -0.1545 0.988 132.291 165.9209)"><tspan x="0" y="0" class="st0 st10 st14">family  dog  movies  </tspan><tspan x="0" y="33.6" class="st0 st10 st14">music  draw  travel </tspan></text>
	</g>
	<path id="XMLID_89_" class="st15" d="M326.9,92.7c0,0-11.4-30.6-26.1-10.4c-14.7,20.2,26.8,42.9,26.8,42.9S364,99.6,358,87.7
		S326.9,92.7,326.9,92.7z"/>
	<path id="XMLID_58_" class="st16" d="M291.8,83.4c0,0-6.6-17.5-15-5.9c-8.4,11.6,15.4,24.6,15.4,24.6s20.9-14.7,17.5-21.6
		C306.2,73.7,291.8,83.4,291.8,83.4z"/>
</g>
</svg>
